<mxfile host="65bd71144e" modified="2020-12-09T15:38:39.218Z" agent="5.0 (Windows NT 10.0; Win64; x64) AppleWebKit/537.36 (KHTML, like Gecko) Code/1.51.1 Chrome/83.0.4103.122 Electron/9.3.3 Safari/537.36" etag="d06SOgvEpgHYB2wUmg2c" version="13.10.0" type="embed">
    <diagram id="6hGFLwfOUW9BJ-s0fimq" name="SCIENTORY-ANDROID">
        <mxGraphModel dx="1313" dy="790" grid="1" gridSize="10" guides="1" tooltips="1" connect="1" arrows="1" fold="1" page="1" pageScale="1" pageWidth="827" pageHeight="1169" math="0" shadow="0">
            <root>
                <mxCell id="0"/>
                <mxCell id="1" parent="0"/>
                <mxCell id="14" style="edgeStyle=orthogonalEdgeStyle;rounded=0;orthogonalLoop=1;jettySize=auto;html=1;exitX=0;exitY=0.25;exitDx=0;exitDy=0;entryX=0.5;entryY=0;entryDx=0;entryDy=0;curved=1;" parent="1" source="9" target="10" edge="1">
                    <mxGeometry relative="1" as="geometry"/>
                </mxCell>
                <mxCell id="23" style="edgeStyle=orthogonalEdgeStyle;rounded=0;orthogonalLoop=1;jettySize=auto;html=1;exitX=1;exitY=0.5;exitDx=0;exitDy=0;entryX=0.5;entryY=0;entryDx=0;entryDy=0;curved=1;" parent="1" source="9" target="18" edge="1">
                    <mxGeometry relative="1" as="geometry"/>
                </mxCell>
                <mxCell id="26" style="edgeStyle=orthogonalEdgeStyle;rounded=0;orthogonalLoop=1;jettySize=auto;html=1;exitX=1;exitY=0.75;exitDx=0;exitDy=0;curved=1;" parent="1" source="9" target="55" edge="1">
                    <mxGeometry relative="1" as="geometry">
                        <mxPoint x="570" y="480" as="targetPoint"/>
                    </mxGeometry>
                </mxCell>
                <mxCell id="9" value="" style="shape=image;verticalLabelPosition=bottom;verticalAlign=top;aspect=fixed;imageAspect=0;image=https://user-images.githubusercontent.com/65493966/91972639-f19fb480-ed55-11ea-9518-2ae3a9b41fa3.png;" parent="1" vertex="1">
                    <mxGeometry x="348" y="252" width="130" height="267.19" as="geometry"/>
                </mxCell>
                <mxCell id="16" style="edgeStyle=orthogonalEdgeStyle;rounded=0;orthogonalLoop=1;jettySize=auto;html=1;exitX=1;exitY=0.5;exitDx=0;exitDy=0;entryX=0.571;entryY=-0.007;entryDx=0;entryDy=0;entryPerimeter=0;curved=1;" parent="1" source="10" target="12" edge="1">
                    <mxGeometry relative="1" as="geometry"/>
                </mxCell>
                <mxCell id="24" style="edgeStyle=orthogonalEdgeStyle;rounded=0;orthogonalLoop=1;jettySize=auto;html=1;exitX=0;exitY=0.25;exitDx=0;exitDy=0;entryX=0.5;entryY=0;entryDx=0;entryDy=0;curved=1;" parent="1" source="10" target="11" edge="1">
                    <mxGeometry relative="1" as="geometry"/>
                </mxCell>
                <mxCell id="54" style="edgeStyle=orthogonalEdgeStyle;rounded=0;orthogonalLoop=1;jettySize=auto;html=1;exitX=1;exitY=0.75;exitDx=0;exitDy=0;entryX=0.5;entryY=0;entryDx=0;entryDy=0;curved=1;" parent="1" source="10" target="13" edge="1">
                    <mxGeometry relative="1" as="geometry"/>
                </mxCell>
                <mxCell id="10" value="" style="shape=image;verticalLabelPosition=bottom;verticalAlign=top;aspect=fixed;imageAspect=0;image=https://user-images.githubusercontent.com/65493966/91974085-39274000-ed58-11ea-822e-8d59bdf3adee.png;" parent="1" vertex="1">
                    <mxGeometry x="39.17" y="226" width="131.37" height="270" as="geometry"/>
                </mxCell>
                <mxCell id="17" value="" style="edgeStyle=orthogonalEdgeStyle;rounded=0;orthogonalLoop=1;jettySize=auto;html=1;curved=1;" parent="1" source="11" target="13" edge="1">
                    <mxGeometry relative="1" as="geometry"/>
                </mxCell>
                <mxCell id="11" value="" style="shape=image;verticalLabelPosition=bottom;verticalAlign=top;aspect=fixed;imageAspect=0;image=https://user-images.githubusercontent.com/65493966/91974089-3a586d00-ed58-11ea-9e09-862dbbbdae1d.png;" parent="1" vertex="1">
                    <mxGeometry x="23.200000000000003" y="550" width="131.66" height="270.6" as="geometry"/>
                </mxCell>
                <mxCell id="46" style="edgeStyle=orthogonalEdgeStyle;rounded=0;orthogonalLoop=1;jettySize=auto;html=1;exitX=0.5;exitY=1;exitDx=0;exitDy=0;curved=1;" parent="1" source="12" target="13" edge="1">
                    <mxGeometry relative="1" as="geometry"/>
                </mxCell>
                <mxCell id="12" value="" style="shape=image;verticalLabelPosition=bottom;verticalAlign=top;aspect=fixed;imageAspect=0;image=https://user-images.githubusercontent.com/65493966/91974090-3af10380-ed58-11ea-8bbb-e270e6973f62.png;" parent="1" vertex="1">
                    <mxGeometry x="210" y="550" width="131.36" height="270" as="geometry"/>
                </mxCell>
                <mxCell id="13" value="" style="shape=image;verticalLabelPosition=bottom;verticalAlign=top;aspect=fixed;imageAspect=0;image=https://user-images.githubusercontent.com/65493966/91974092-3b899a00-ed58-11ea-8626-4b73da3e19d6.png;" parent="1" vertex="1">
                    <mxGeometry x="93.76000000000006" y="897" width="132.49" height="272.31" as="geometry"/>
                </mxCell>
                <mxCell id="21" value="" style="edgeStyle=orthogonalEdgeStyle;rounded=0;orthogonalLoop=1;jettySize=auto;html=1;curved=1;" parent="1" source="18" target="19" edge="1">
                    <mxGeometry relative="1" as="geometry"/>
                </mxCell>
                <mxCell id="18" value="" style="shape=image;verticalLabelPosition=bottom;verticalAlign=top;aspect=fixed;imageAspect=0;image=https://user-images.githubusercontent.com/65493966/91974885-79d38900-ed59-11ea-8bd6-bfd42b40f0da.png;" parent="1" vertex="1">
                    <mxGeometry x="670" y="29.999999999999996" width="126.5" height="260" as="geometry"/>
                </mxCell>
                <mxCell id="22" value="" style="edgeStyle=orthogonalEdgeStyle;rounded=0;orthogonalLoop=1;jettySize=auto;html=1;curved=1;" parent="1" source="19" target="20" edge="1">
                    <mxGeometry relative="1" as="geometry"/>
                </mxCell>
                <mxCell id="19" value="" style="shape=image;verticalLabelPosition=bottom;verticalAlign=top;aspect=fixed;imageAspect=0;image=https://user-images.githubusercontent.com/65493966/91974892-7b04b600-ed59-11ea-8522-0168bb317f2a.png;" parent="1" vertex="1">
                    <mxGeometry x="667.57" y="360" width="131.37" height="270" as="geometry"/>
                </mxCell>
                <mxCell id="20" value="" style="shape=image;verticalLabelPosition=bottom;verticalAlign=top;aspect=fixed;imageAspect=0;image=https://user-images.githubusercontent.com/65493966/91974894-7b9d4c80-ed59-11ea-9b5e-2b25f8a77251.png;" parent="1" vertex="1">
                    <mxGeometry x="670" y="720" width="126.5" height="260" as="geometry"/>
                </mxCell>
                <mxCell id="27" value="링크 리스트&lt;br&gt;사진파일" style="rounded=0;whiteSpace=wrap;html=1;" parent="1" vertex="1">
                    <mxGeometry x="506.75" y="897" width="120" height="220" as="geometry"/>
                </mxCell>
                <mxCell id="40" value="" style="edgeStyle=orthogonalEdgeStyle;rounded=0;orthogonalLoop=1;jettySize=auto;html=1;curved=1;" parent="1" source="38" target="39" edge="1">
                    <mxGeometry relative="1" as="geometry"/>
                </mxCell>
                <mxCell id="38" value="시작" style="rounded=0;whiteSpace=wrap;html=1;" parent="1" vertex="1">
                    <mxGeometry x="353" y="10" width="120" height="60" as="geometry"/>
                </mxCell>
                <mxCell id="41" value="" style="edgeStyle=orthogonalEdgeStyle;rounded=0;orthogonalLoop=1;jettySize=auto;html=1;curved=1;" parent="1" source="39" target="9" edge="1">
                    <mxGeometry relative="1" as="geometry"/>
                </mxCell>
                <mxCell id="39" value="" style="shape=image;verticalLabelPosition=bottom;verticalAlign=top;aspect=fixed;imageAspect=0;image=data:image/png,iVBORw0KGgoAAAANSUhEUgAAAF4AAAB0CAYAAAAM5YU+AAAgAElEQVR4Ad19CZQdxXnu1337bjPSaGY0WhktgCSEWIQwWCxmMcRAwMYGYxwbY/CS2M47sV+cPOdlOTk5yclJfPzs53jBy3vGeIsX7IBXjLENiEXCiEVCEgjt0mik0ex3lrt3v/P9VX/funfuSGAj0Hl1zr1VXV1dy1d//fXXX391e2EYRjhBXb4yiWzQEteuWs1LuBRFgJdCNhGAcYlEFvlqRa7jxEBdnD7L+0z/Wjv/ta7A0cpvBJ2A8cf4FMooV4flmj6v6dgB/NFpx8jFCQK41sU7ESheqbGRcpWa6YcowEcGlWISQbos12wE4+S5yqS2KfabdVx88zUOnBDAKwaNrIXxjCNbKUUVpBAiQgHJXCtGD1Xwwo4dWHr6QsxZ1IkwDaF67SA+WyhU0do6Q7OP2VIc8RoGTijgiYNL/e51CUn4RWD88Dh6nsnhjr//EYbGD2HJ6afi5r+9EKefvRwtHUBYjJBsMfMCWU4U5dASdL6GEDcv+oQGXlnNxMQ4Up6P3s0T+Omd6/G7+/ZhfKiEhJeGl/fRsrwf133sArzx0jcgu7SIlJdBJWUanPI8CZAdnUjuVQNeQXQbr9StccrjOVFSciGPLg8VkRvJ42dfeQhPrnsMO57uRFtypj4iwHteEeXMJM6+LMIZbz4f11x/KVIdSaRbAknXyMKa1SXO8FUKvKrAu20iyAo8+XI5iuB5bXGSsJBDoRBh44/24J67HsaRTUBQyMKL0nEaBgKviIqNKwYhErNGcepFGdz0sUtxxtpT4KVL8JCRZ/xSCj5Kwopea/CPO/AKrqKlVK2iHq/Lk5MoRQX4aQNQWAyx9Ynd+OXXnsQjd+9Ee+ok+JNZRF5xCvCaL+/RRdkQ1aiIREcf3nzLRbjy/RfJ5EtJqJn8rx2gIqjJpFS3ftAyXkn/uAPPyrrgE2h1bjwnT6HyPh93fOFObP7BYeT6O4StlIseUqFXB3rgRahEhn8zbFzJ+imUsgXkymNYenIGf/SxVcJ+/PYqMpmEiJ8KeHGyIiyJ7IjzAetBojje7rgDr+Bqg/SaDRNqrw6LLD4yMokN6zfg7r/eiPEBIDHShiCaacD1UkCkoNYgUfBrwNfuQdhLQTogygzi7Ku7cdNHL8eSMzuQyZjOn44I3Hg3x1cy/KoBr41R4DnsSWGTw8CO/c/je5/+CZ76dR9mjS9DtjCPUri0syw0mIqpu7HxCj7ji4kC0tUMmnVEPtsH/6RxvPO/X44rrl6Ltvkp4fWUmPxMJqZysj0/7QlRNJb1Sl6/KsAbNlKQBlKupsuPRujbOYJff3M9HvnxZlSH54l4SF5ugFMKbw66C3jgpVGJigI88yZbokvKP2Ty5RxQShTgp/KYe3YGN9x+Gc6/7mRk52VlUaYTMCUpZT/28ePivSrAc1FTSRt2wZXn0K4K1t29Gb/69mMY2T0T6dBDZCUTlVp0slQAKbm4YDNer9VXhBonYb1mOo4gip/V9hxOuXg2bvmbS7DqnOUop8wIo2T1/wWPJ/WEqRIoypUmy9j9cD++9eX7sPvxcSTRhqhQFsqkiosUqqIh1QTK1wlcEobyG0HWa/rGUTKqsSl2pAJPn47llCj9YBRt3RVc9Y6LcfX7zsOM+TNQoXTlsB6b6SvuHXeKJ/B0L9zXi0fufzZedboyOeXvVLUsUouC1NhSV17nPQV8arqatKN5uT7TawczT3ZAtiNCy6ISrv/463HJhech01FTOzTm/0pdvyTgdULUQt2JkmFOUFRG6QqR13SBl8HYniJ+dc96PPzt59DfM4kg3yGUTqrksC8lkkhXptdOuwC7YZN/DWSt27F8pXqm01EEPycr3yA5gLPetwjXX3wTVr99sfB6yv90upKWEZw2KmfGu9goLm68GycZ2b+jAs8ZngonZq4ZaEFcbaKYlvuiQbQZhsUCAq9NlFmP/t8BPPLkb7B7/QAmyj7ay3NlpcmkbA55LXm78nW3Ym7YBVzDjb6bvlmY6YW/O6xH08mIsGoHxlH6eet1b8Yff+AcpOf5mNlliItrAJXG9FniovgoNnqPvuLmxjE8LfBHy8QtiKpX8kThx14KlWHDx3/8Xw/g2R8fRgKzwAUQxTxtoFZCQVcQNZ6+xjX6R7vXmFav3XxdtiMUj7TU3R0JlUwefnYcs7vacOPHL8FF150hup9KlIOXhqggKP00YqQgM74Y5ZH2zMaNW76GmwKvGbq9yQcUcIZ1iU2FFsGXuL0e7vvaNjxw9wYUD1UQZpJGieXoV9wGepiJAEb0ozjY6BS4Rp/pGuNe6rVbBp/RdYJZcHEkGnGXqgc6Lr4uv3EN3vL+CzH/7A6Jo7BAR/B1xSsRDoW7GOo91z8q8JrQ7UnGUS4nhVM0TJTaUCKVb+jHXZ/5Ffa/OILEUAsIqqSxkoRea57qs/F0XP43gsf4xji9Pto9TaO+FODkxWulfE6wRqIyeuSKHQH6jPD/dIiuzg5cd+uleMMHu9DWnoU/KzS6H01o94D1kr5LqG48w02BdxPpw+xZKq/8tJkIGQ7zCREPCfi+Z0eRLWRjcdClbA5pl79q/pQuzNRVm+gULPWZVsON/tHuHS2tls80xhkK1g5QHZC2QaSgTBKhV8SiJXNw2z9fiO41bZh9Sns8ARcKeVHycTWuhKrlNPOnBV4Bp6/8Sn3ue1Ja+c877sG67++CV5iNcimN1mpWhiorSuc2RCmM8aSymqutTBvB0mvzjJFgNE79o91rTMO0Cqo+R4JwnTvRs84kGo5x0xZggqvfZIQ113bjvX91BRauaAMyVdGuqg7IzW+6ThDgFWR9gNd0qtgSfh6VQIlluKeCdd/ejF/e9TzGh3MiHuoiRZ93K884pRyGKckEwvPZoPrFTizeScLaAkrznc6nyoDiqcuu4o72UghQhLKQGphGBc25Reun9XavNSxVshIRVQ+t1QxaF2bwhncsxbUfWItZCwLDfhztpourG5a8Gq0MNAF9lV2ZkDtB2x7sA6WVx354BPPmzkCxtx2pdAmlkp2QmoiGbsWV5TA/Gb5WnNRG0adrNiKYj3awdpBSdC29YWmGSplTcxZiSqnxeV5r/pqnXjfztR2q+19yzizc/vGrcMplc2Tfl7jRNbIdxZb3YlZDqg4wFvNofZDaw6Gd47LXufm+ARw5nEc6NDtFEcakgEYgJNL+seJ0msa9J2GqBuis2lcVXhLn54DEhLlfba2FTYz8V5IlBGWbhxMfVObbq4ywP440Oo62WC1hU2gdleJt9BTP7QTTuYYFMWG1cxJvvGGFSD9dZ2Vl54uCWmtrp8wDtIIQF5lNFq9cnoh0UUAenuRmQCEpE+fo4Bge/MoOPPqL36FvV0q0ftrbzMQUzpBhGe5QdynHlGj+lWoVCMry2imk3Ap/mWEkkmNomdeO8cSjOHXpXGS6gS60YcmqFF442IOVJ3VjfHhEMu2ZHEdxzywM9ZYxliujWmzDRH8rquWZ0ilRxVgZNALrAtm4mHupncF26hxA+X/uauDSa1fj0necjY7uAKmMF3d0CT5SXiBKuBh4ioZUjQYloDDsYdOT2/GjT23Eto39aK90o+jnkLZUqQsfUWSRikCRjDNCvSKLlTLxQIXipTqKomQdLhUGQ0jO3oeT1kzizDNPQffZEzj39YsR+Tn42QipLE01DNBBtoBKBUh4GUQxKQGlsZMQTnoYGQX6+w6gd2cFO57rx/ZnxzC4vwuYXISgYGRxhG0xb9dq0Xc7h3VsbJOmbUZYfJZ7AsGsASw67SS8/X+ch7VXrahpPu3eL+V/YTWTlSHJrzqSxaZHt+O3dz8VrzppPqGujioc7aFWguk07PqNoqQ2TqiqbQdOWjWA0y+5EO/8QAlDIxPoPnOvFBlGBURJM9EzIvIy8BjXxNc6Ip+FxxFT8RBGGYSFdgwdmovhXR148OdbsXF/HuNPeUgMnh8ry+Jn3UCT9rlt0sna1EvZaU33r6vf1e+dKbqfZdcYwyrKAVzRCvBU/FA8/Pk3H8Bv/vMAJgpFBIMd4OKBjivQKZvNTsWEep3VqVtBHQkCvoqRltpoD3PlWyt4w00ZdJ40hMwMD4nWvQgrZYR+iKiahZfgCrIIeFbsi6byc7kn8YaRsmOSiBCVzTPsAC9sRz6XwtCBFH525wieeng+8nsSIBsSqnZUB0oY7nzDNqlzRVKN0xHMOSQWozMRyt4R2Xi58tYz450v7nAJqxnZV8Qn//Lb2PV4AdGkJ2YUzFAXOFIREcvIr4oidZAXN05UCjifdcNmyEL4N+9xE+LSawK87bbFmHvei/BbNsNPUBduJ8BEDeRq0e6PpkKAHacdELe41hGRZyZ7T0A08Y1xzC8qLsWRjStw7zf2Y90vK0gPz6EMIrya7RJniUM7gXEKvgu8tlNGr62Ty0KpdvYLZYwkCui67BA+8U8fwJlrVyAwAn4Ri+ctRssKYPf+faj2Gl5d8VJWk1ISqaNMvgzbo3YjulllWL5UzkosQizk95lhtLTtxZtvnY/rPzgLLd3rEPlHhLp9fwwBqZYjh3zbguxnDJikNxdQSdfQEXKfhTujwoucuYW3kiMI0s9jzgWHcdvSM7DivBS+9r/2InVoKQBusJtNFLY9iTQqIKHVq5+1zSxKRrRnFotxJ5HXByGCqge/MCbCwnhhAKPrxtDbO4hVKEDsGFLpNDrntaA9PQ+dXV0YWjyA59f3xyKe7UjxlK1oJ6gkY9JQurFUK2iPybAznVUS0N/ziTW46OZ+JDO7QB6eSEbwhU1ZKvfHDHCWdQlwSoVaEWVrXNCUOuClhk2HNabT9BwltjOosq6ERSRb+xB0A3906yqkZs3CNz/Zj/IOM0oIpkoqrLu20fXjrEmITrmKD8XjiUQRE+jHWKUHlaCAglXA0cI54KZFqVhBZcKHlyygc/FM8+vqwtbtT2B4B8U9M2loYXHmNkKoW9KYVSB5pnGkmpJQb2H2k7j5b9pw0Tv6kW7fiURmFOVSBlGVhwzGEFDq8ah4o7RD8rZgOY2SPBmv95gsZVmDdphzz1ailicjvJKMrLDswUvvR4QRXPS2lVjWvQL/8P4RsclMFv0p+wQyR9lOiPO1dVNKNyOD1D4qgE+Go8h5OSDKIcmpiuzSOp87R6T4oDVEJfRQTpiGsAPOOG0tulfOlu0xd3hpQcyDncCfOt7TjtC4ctsOXH5DBpe/o1NAp6RSqUZIJkMEflp+AqbLThx2IfkQUDo3XjtB77mgO6MiZkEmB5NNtQ1e2IVqUICX3ouF5w7g3X+VED18LC7b9jmPmaCXqmuztp+dM5nsEdCH/Z3IJXpEQOH9sgiHuoqiXb+6tJlMRcGVKCKy1H/uFatwyZXnonWhL7O/JmdH8Od2gt5jQQSfIlc+Oyzi4pvf324o3fZ6kPAM5fKhkCpk8veUCTNOQbVhdpR2DqlVnH2mUrXP1nWKJQYlCs3f5pdI5+N5hIRQzT6NC68ryaRPUZBt4I/qbPJrOl7Tcd3S2G4CPpw4gKFqHw7jRRTDGnXLQ/YvEv7hAl8EIt8RmWibQupPFIX1rL18NZZfMBeZhVWpAHvX8DyzyNCKauXEj0pItI/ijTd3YuFZPfASOWmsUWrZmgjAFiSlUstyyHYE7CgF6Sg+4pVEOxh3DFlHoiR8242T3N3Os8XFHu8RRN9QYSIVIjV7l0habYvMnrHsIcQPmADbxXbTp/RChZkCTiovBv21JyIh41jHxBuezHrsPHVpoJIrI0gk4YWe7ReAa08kykjPTmJ5S7dMvnvbDmDv3h5kRQAw/FxFT82OlZoM+rFq9UFc/OYF8DNHUK3SWpels5ftPOCCw7ClTE/nCdsZFAN9z2gUo6rxtazIH0GQClGpFhHUxrDJywKsHajPxOVLp5ZQLvkIsofRfsZuWVv84LP9aKmYzRxaQNDpXEfQCXjVGxMKrwZjKEWjKCvd2gEJCzyf5QiJ5ESL6Ywa8CQ6Ef8ioJo21G5rWRFtWwnIptB5cgqdi1dh6f5F2PL0CxjpNeKXmVBragOCm5q1Fxdf1YWWk/YjKmcQJCP2ZEzFNnuQVZBqxSlQ0gFpROUWhOVZGDgwC6XxSRzpbcHk5DD2HAzRlY4wb3EXMm0ZtM0IMHtRBt6MMSRaDpm8OOE2uLqyeM+W5yXy4AZmtqMHay5ejd/8eBCTO8bg+UUk7aJI1B4eUPIL6A93goBTWily/eF2uJbpmQ6TS+kEO7KFXTHW8vzAL8KjDG0nWKF2qVyDbjxRxOz5GZD9HNh9EFs37Uc5X5JepRUNWUk+Mwl/Tg/OuuA8BFGEaiKJsIoawFo5pXz6XkkmXYp81ZKP4sgyPPXgKLasm8Cmx3tQGDQyeSnP5beIPkhl90tOyRke5i6fkI5+3R+tROeCIwiyJXip2tygRcbUzghbrt6jaLro9ApmdIwjlw2QzXcYJZdXFH1V3s9hvHpAQC9VR+2kaZ4uhyGSfkMPEHB2gFeWVYGWU6N4G0M+T1ZDR4bDPgv8CJVQRUSTMMwWkc4msaz9ZGE/pP7RoSqKpRJIOrRRWXvhHHQuso0PmY8jlShbseWKx2Hvc/nQguJIN+787EFs/HYEAu2NrRURjyNLRFTdGRozVFQ+AuzoncSexwfwq+/l8OG/PQ2Lz+tCtmOLWAYo2HWsyC1bqY+61nk9eNPb2/CdFwZQzncIayQfF/EwzAF+HojKU6h8Cuikad9HMQLYKdySUVffPWHtUgdJgHIdz+eDEUcGOyUqifhJ0fOya8/B6efMQ9v8EOXsCKrJESzoTiLbZlmIXVhpwQqEua4NQR36P75zLx65q4xibjVK48tiuZqTOuumPkU/0TRSvVyO4I0txqHnsvjyv+3DyNZThOKjIk047LBWVqYVsRM5L0U3EwJhpYhTV3SirfsQqtnDMnmqeFjGCMpRUYB0ebhm1+gLG4qSCIRujVUd09SQthSu1N6YAa/ZCXRkRxKyKoEoMQ6OgFPWzsBll18E7sh4c3qw5PwAnPjkWUoPjY2WO2Q/npFKOAEV0xgZCLFlfQnR5DJkwixaw3qjJ9WFqEgnEgZNRSrzRaGXyS9G73Ptooup5E4XLaUtSrxKg6Rn5HxKK0VhhX5mBB2nDmP24gT2Rr+DSCsEmxTrp+TXSN2yQGLuzoQqhVlW41V8FGUWMTWp0b65jv8594p4GRrJpibnmCRJOwHryGCsF2aRnh3hdbPPwbnpfVi5Mo9E2qh45Snl53EpfMgR6+SkfIR9m9sxuP8gwmK7iBJcDwQe1wWUgsn2jC5HV4riS54ZpKwWmaaCWzcWUTlwLpLL9qJcKSOZUrGzaFgnyw5nWkmIouuYTPRktG3tM1DIjqLkDcg8EAUhkiV7vN/jGoB1r7W+7CWRDMso+7U4t5kMpx12Vkfx8WRqn1Dqj0H3nX6yEzA7iPf1R/YT+jkk5qQRZFW+aqxCDXC9U44yRsyk2NY+gZFwEIl0H4rFoixYxAKYrA1mE4XPMUzVdYVaSblnw9YUe6BnGM88dRCozIMfmtEUVWYBEcFmZ84U9lIu+zLqeI/xYTWDZHYCrR1FpDJmeJBixQno5XgxJZRuqZrgi2ukehOLosNuHSTJeHhyuja5Mn0MunRwRla07JC4k/wgnoxt/qJFbEUID23NlVfKctSXCbwfCLtEh75wcRkXXjgHj/cfgFfoMBpCsY9nCWSWHCV2so9q6mbe5fEd49PwoAP7dwS4IHcFvOx2ibfQSFj/PG8CmGiN1y6eP4RyvhXLlp+BnxYelWRmwWSGE6lfuUYMNq3Ikh7saxQ06zrfpfh64EMfnlUE1z2hbMcv1EC2gEchhxYZQBmU94OEofJSqQsRdhkqdgA2raiXkMhuqlVSYVGWEu1dPm74WBb7R/ow+Pg2lAeXoIIJgBveVNOKXK2TNhcnXdIZwvPF1IOUbybsdf81jB2beqTYPJ5HOuIxH+OSrWb+2Z/v1ajYL1XnY2L/QURRh+EqnJwta/HKDOsIKMd8vcoVlBEI43w0wM5SEYKq+HrgyUrI0x2RUh9UtqPX9OM5QOV/oUTOCUWkUgNu0mOGjaipSqQRdK8o4R8/uRKP/ayMB3+wHT37FsCbGARyy0Wu1vaREsXaQRY2XPxxaM4UnT43z0f2DGFkp7FQKAfnwvNGpS4jrf0oDGYwnNgC38sCQR6kIZ9DosLNl0PwIhPftPKWvchkyg6Z7tp5WFvHqHrgQ4o7RmXgpI87ommHkNo5qfBJL4VytYREwjxdqo6gVShFVbyWSjkC3IlWw6rQSo/BRxqzTn4R13xgCS57x1xseWYQG+7JY8/WAId3zECYn4FkJW8IjCOBJiced6nMaFJbm0AsDFJAJQ1Ui5hMJMwyvzKOkjeKBNrNarqchlS75DAjAlq1lK3AsmkWaFKxHQQuXC8pXA/8NBSv1K6+lG0XWWQx8Twgkg6NNYEJ+MjnZqFtdgkJnn+ic1eJjeCbFCLlUKcTeW2ysY30XqTmzsL5l3XgvEs6MN4fITdQwHMbhrDp0TEx6RgeXIbJvv1IlGcCtLGptqKSmBDxkqYnlIaKiQh5b1Q2X1jUhGg7kyhzU8T3jdKLa4GIkompDEdT7FyEbSfIhGs7QTujzo8fnhqoB/4lUrxL+Qq60on4XgrjA504sncYC06h7bzdL3XLVyrXOBkZpqFGY0gdENcLRiHmZw+B8vfM7jJmLGjD/OXtuPY9Z2FiyBPLhD1bujCeO4J920rY9PiwqBfyuRKqpXbRj7OYw+EBKa3sjRh5PKzNE7xBoMtWW8lrXSfIQxZsmWQlsVUF6EiYzpeHp/7VA/8SKd6lfDfLMvdNqVoOfaSjhcgdGUYlX0Iy2fASH6V89d1M3DivhKR2EKUanzaQSQTJUdnBqlT3orU9jUwxi+4zM6JMK47TeGk+9u+u4MiONLZu2IGHH92J7fuGEaFF+LdpdBleA8gyX1Ddq6tcF0xbx/ieW+ffI1wP/O9B8W6ZItGEPiI/D6/chp3bO3DyjnEsOs9qC93ECqjGuZJPA/iahD4nYW6K6EZKhUZWqTF46EIiyaNDh4VFLZsDrDhnAS58a4Bbhy9Bz6EyfvurF/Hk+h5seyaPUsFHtdwihwtKfMdKxLmtLTZpkcmSk6vLYtyK/IHheuD/QIoXzSYrJJJRXqh+786dWHhWFrLjQ4GBoFkeWld37Qh2gHaCxtUlNCoGRnEBRMfNa3mLUDxCzMoW2UPwswBVACuX5qUjbst144Un2nHHV3dhx5atGBueRCroQsmqUYyMTm1iERkYBZdbvLAaFS3dEdGM17sPNoTrIRCKp3CgwppJLWKj82DjtXNL5HlZxYZZofpDhzrR+1w3opIniyml1DpwLYWrDYybXxzWzqDP9E6n6C5SPHnrpEg1c1gUtiQbKZkhpOb24XVveQFf/X4XvnvPLbjxltOMDsWCGFaMERdZSrx9R1C9MqIgDy+cEcvtcd1eRkB3oOqBJ8WrfO5k1tgRjddO0rogdTfRUDee2zCJkQGjY68DTUC0msNwpmw+y33uwco+rCv52qwdwCXG7RAtXeM4Kri3y1VlZlSoOOkVxI+ye7Fg5S787b+dju/dfwFufF8G+UXbNAfxqx5NXFRsoCWWhUvZTzMqd0eBVQu7mVLbRHPtelZzDB6vGahUI5QfVmripE1AtTEnWLpqYTEOH5rElnU7cfYFPmbOK8JLcGe/r0a1aprBBwiaA5zNsiaKKvBMo+E4kRVZNR9lbQQ/Sgn1x6ODHDF9CFFUwIpzMvjLBadhyalzcMcXtiAa9IT1yMKKKxQLZtOJ9Wjgc53NTe96BiJHdf4giiflk63EehviRo2HBZ1hP2xDprQSvVvPllVo/765qOQzQtFkP2q2F6tqCWYjoLxWoJt1igu8hm0+SvF83mVz3GrkL9kyDIqqM5Zsx7s/2IWvf/NqnLy0KhZnArRSvPrMP0rGSjLtlKZ+E4rn46T4euCPweOVt7u+gO4HAr52gPD4WOVk1MXh5GkY61uDjfdFOLxrPiaPrADQ7kgpVqbmxCW/Jh0gjW7Q87hAy31n06MxfbNO5TwQjaGCAXiZ7Vi+OofbPnEa2jrywtPrpBoH/KbUr3Whb9lRPE/IvWk2QnAMHq+83fUFZEv5brluWDbL/RAEf7T3DXj8npOw8f4APVuWojqxFF65PR4BYoHgPsxwM2pvHBX6DCdWnVw1zgVc89J5hGnsfc4DUXY73vSW+fjIh85EW+eIUL6ASCAtmJptUypX1mMTceuv5gxnn6okOwaPV95ey6g+xE6oUyGwTeSRtLxCDh6y8MtzEIZZHNoB+S1ePg/tJ8/D0uUBki1D8KK9ZiJUYAlQo7WAgsfimU6v6TfG8Vrvm7v22oqc1rzDGEUBtDaIWjbjLe86E8/v68FPvzuMKEjDE8WZzaCxAzTfJn49jzcUP3VyfYlyfJP8pwCuaWJVcUiBmpsKZr82LCxHpephz3MFRC/k8MLjvZi/YAkWnzUb7bOA9Oxx+Kk++JkhRMV51jDVsBkx0SAhKdAsTC0UXAs1va+dqJWSzqo3+ebaghsiXsKAn557ANe9bTE2PDyKw/uKhhlUfXgOu5ERwGul8ma+lil+TZaphXjj96R4l8qV6gkyF1RczZI1Rfa6ljaFwKugQuOksA35gTbsGQCe2diLnpGdKBY3Yu2Zs7Hk/AyWLl2M2QvNYbJE5jAibxQVrtK4b++l7baeNa+m8kvFyEbAtSMkxdQ/2nIai1mA57DOWnMWzjq7D0d6aXhqdTcutb8s0FmeofiprOb3oHhhJdy5CsvwqjPE6kB7U+457RPrBG7BieUC5WNSC9mFYRG58XE8vW4XDgz34cjEYfzmPpqQDGLpim047YwZmL+gE1dctQLLzpgvLEGaUs0iyBxGpWpGk4iLMjk7mkUmbMpu7ETtdoiyLpp5tA1gzUVJPP5ghMJ4w+sXlfJfFvgGmams5rsCkGwAABdDSURBVCVSvPJ64ydFBx/YIzOEU4zFuCFNNbHdd4nVCcRAJZ6qMQEvJ4BnntiGR566H4XEiPDTKlrgez5KuZOx9ckinn8qBz95CN/6Yi+SLQWcsXo2lq9qxelnLMC55y1G16JZ0sUhN2W4TqD5Nq0Wyi1mzdAMfHnC/in4BF5GSlEsJNasnYeZsw+iYMwpY/Vx/Ggz9qKdESfSwB9I8a5UY8z9qIPhBog9aJzMibrA56uvjCGI8HcFnxvi4vwSenoPYPP6p7BnYI8sNqioavVbMBGyC8uI/HG7ysvKSM1XgMLYXKx/sIj1D/XDwz7ZkJ7VGeCSNy7HtdesxPxFMzF/RQ8Q9CGRmqxNwCxUAVYs1HcoXaI8btoXMbPNjArV0dA392tbfprFsX2+q6T8B65cy5nY1E8W1dz54UaEULxZ6nNEhMm+KfXhvDh6cCueGtyBpx/Zgkw6i8nIg+9nEUZ5TETtlgUla5OZaAppVlFGlOoX9a7HdNEclMplHMmH+NE3BnD3XQ+gfW5eRsRH//pKLFkxiTTtKVv3mpWrVSHUSUONoNsaU8JJtETo6Erg8L48/IYV6BTxckpLp0aombayY5PiGDxes5HJMmk3vh07yyiZQ7mrF6cseVqS+i2U3X00+vv69mACQ+gKduOqmzRX4x85uBhPrRtBizcPRW6gsCOTOaA6bvTkVN+WeFjMOqu61Q1ogpPrz+KxBybx9Ibv4tb3n4cbbl6FBSuLCLKHLB+0I45ZKO9vBF/YTRotqTZ0ds6CH1ThcfvQddOyFDeRG64toOqBPwaP1ywM+6ApiG9NQmoT2UktOay5oB3ZOTk5NplIVVEtAfR5GJjWtxeUuoFkF1A+Gwnu1PHAF0cQgO/f1YNn1x9AIRoxm80E2srQjXucZENI5OL7XNCEMJYD1TCDYj6Nb925EX5mFH96ylxEfha0g69zCrgAXbtD9ULFvP+oFtkYOhp/b9opBu4mUg0NB6daGShP13JlctT6iw5IWYvpAC87Cj+5H4lWI9pRJy5O9Nic/DxjxWujyXp4trUapTGrq4ogM4TiWAtavPbYCEh4rEtxbDQn9AaNYYguJCm20XSwmpXJ+d7v7cFlV3dg5Rqe5cqJCGqLtvWyizBe2TrKvoGYigBDQ6NAlTZCSUTJImDfGFiXR+OFK3bKPWKTjg8muOvZmnJLN7KdEyJuvvGE6Uba8NgkUMl7iKrzZRgT0NjZFaiX1gmqZPT0HPFhCslUAavXzEH3KeaJKFFv3059uPBV2yjucnlVy3ZIYVESychDW7UbYcjNcuptshgdqmB8ROvBFWvDCpfFkeKF+s3CihRPs7+xEWB4oGo6melc0JWqm/naaB0VVr5THl8PvKwsrb2MgNE4m5jcYnFQKmKonc2iPc1wjt/mmCUiHW/zJGGd00Zb3qqdIHbsABYs9XHG6lbZxnONPLkBoSxH8xPe7+eMppCTrj8ulrw8aUfLgSpGkEgVkM4mMKNdRAB9tAZ+LSYOsR3cQKHZn7q6sm0n671pfaajs4TC3JpvhKg69xgU7xakpwQlf2uUufPFQfC4DBtQd8BXqaqBnyoFUhXgJwp41+0XY8XZXFzVnygUpZTTaAVDd4VI4UGCuqHa+w+q3l6cv3YeTj55gVS76baj2yAljCglNpRjuaSMmDTZDgFMNHSg+2xj2KF23uI4r6d4O/KNLqX2tFnqGz7NWB2stRQmJPFRCXsP9OAX927E/b/YKosP2scoqI3PxOKcvUEK4/KfsvPKNRN4y03zcfKqHhEvhcUwnaVqUjbjZH+UjeEka6mKyXhdCs1Im7PQx/s/cjqSM3sk7ykqZyUCAq6j0Bq1Mq9nnuiDH7Wa4zZSVwWrRskSPd2fA75L8Waa1RHlHExgPpTDXce+Fv5u7SZlIeSl0HNwFzZtfhZ79+1ExLNEm3YhN7gYbbPbzekJ2yCduGp+rWO41K8Wecg5RCIIcd07OrH8tDfiM/+6DXtfHDfrX51IWSlRWPkG/KqxiRF2xHvJXqQC4ILLu/AP/3SjLKbC5KioGSpRiKA5B42byk2ZRKVDJK0Xnx9HvuhYlNo6cJIVg6Zm/F3Bdv0GijfAayeSxztSjVC80Lk5kkPgRdtoxc6JoQK27FqPHbt24sjIQQGBfdizG3j0wX5cc8M8ROGImD6LJYC8F8CqY+Nm1gK0RJB0fgkz5+fw+q75+Pqaa/DwA/1Y/+h2bHh4WIY9KTA/0WI2Kqo+ytUICZ8vaQtFh37qyjRufs8aXHrRMmQX7JIdptCaYos+o1Zk01BU9YVVvvh8Gc9t2gVUlsfpZML2ygb0OPYoAQUfeWHEyuObUryyGPoEOmkphBQuBwSiCD29u/DQuodwZPiIDHMO7WTVQ5HHNQudePS3z+ANb7wKHSdRHuZJC3Pqg9QU73tS6lBneatsz4l0MSaq4NScYVxzcweuumG1vAho744KJocL2LWrRraFcEBOAM5a7GHpoqWYd+qgealQ20b4olakUZVVKZOlNZ5O0bnH1oFaymopjWee6MHwoGNR1jBZypyjwB7N571Gipc37JHiSYhjNcom6HQ0RCXLCXggAEWMjo/joYfXY/ueFw1fZbIoiZTPhdAI/Cr9FjzxSDKmeu5rVkJamVG8czSCtqFSkPvnleAV58rZf7EeC4YRpPjbj5WdRhl2Lou1512pFOMbm5JZWqz1W2tO6nHNUI6PWNpND6F6tx5u2ZzLogz6D4T4zX1HMNLXbQydWF6iP7Yyk3UFn3NZTUM+Yodp8fEqEI4Q62r4knp5x4ac7C4iaUUo8nJXbOSmxeaNu7F551PCVtJ+Wk6zSVm2Ryk7J3wfCaQxMdqDO7+wReTyBUs7kMymUanmzHFLpTC3onbhohMc2Q5tYRLOoCAlVsLDMcVKm6zk5AVFsZPkcz7fcZOuibHxGVoBynY8w27Hi8xv2KA/OR/3fv8AtjxDC7huU0tHUnKrLZO6joS6G4iNX3XiD6wdKJPVy/FifsczIQZ0+mQvew/sxi9+dC8efPaXhrVEyXiW5zFCOvU1XB5fLrz+q5/7HUpjbSjnzfkh4eHaYPoa5uJKw9bnu2XEyIlHbaxxEvNnHlxZ8kfJycwfEGs1hqPUEdnAjvNr7Ggth5nxHq+l/CLKkx3Y8JsKvvf13agUOsVmvuwb28+jbnBb4mOWCrSE7R9HSMV+UIBRAZXydPLalFhaoTRTwkR+ABvXPYMDw4dxcKRPVoWS2ClET7+pz/sSjtKYHF2GR3+7E99Y0IN3/ekMkXIEFNklsitENRxtHPo0x5B7tIkx0pXwfxagaaUylnIFXBq28ppHhXhgwb6CxXnGzDGW6sXWRm4K+FElg6H9i/G5T/0CuWGqoanryNfareWxCHd+cuIlGPEoahFJlf25V1ZNoyR7FubV5oF5OaUnGkC+NpDOSCvPiLRycOiAACnLBsuv6spxeRw7xBl25PtDPd34+h1PYqK4CLe893WYdzI1E4b3esJHaGZnDx+T8hRUZT1yKo98sK7U2uhwo1VXTmD0hJ3mZ9OR7Ygexk/LHmsySKJayspiadem+fiPf38M2zcnzemQIIRfJfj17XKLlLASouMn5aiOXfmwIzy+CdcwGNmB4ttAqaxMpmagWDAbEyqT83CsS8l1hSjgCrZTqFaMCxxWvDjWjZ//0Nimf+TPrkTLPPOGC4qa8uopfY+BPuiyAgdMvR37BFXT1nWaw8eZWKlT85Jn0jCg+/KiuMMvzMf/+ex6bHhoAKjMlnnKbpHGxb3cgEzAWjalmiq3Pc3K11B82sPA0GFse6YPzz79LMYTw/Ai0zvCm6rJKR3gzth1E4x2gKhzeSwRctylf38GP/zaALY9fT8++OfnY+3lMxEFBSTT6ZrEw5a5QGpLFWCXejWs9/RZvVZf4zUv+mQxEQ2MO+Ws1P33FHDXV36G7Zv4joQOoxAjNeroZZscAhP1tB6/dPJ132VgDhynzQRrMZFFFw+J8pCeOTNUxmj6CDbs+TkSiZa6xQF5WbJ+CpYKmXf1NBj5aOWcyigvTPkZFMfn4Nn1g/j73T/BpVecinffdoFsXEfBYSA7aawFRHJhBrqqI08ck0lU48j7hT0J2+CbP2o287QKQ2jeBiIsxe44xeEoBa9s3sS3fVMbfvjdZ/HAL14Unq66n7j62h53dJM2moAePyMaUnucRzrOWBmXEgW0tacxu5MnFKmNDcOI753kp4IefWg9vve1b2LDr3uRTKVqBWjB0/lxqQ6VSO6Odsc+yxEkLshj7sJCvE+66vUzxKCJnWDkfnsIgQse2ZSwE6yAbhZBlGDiBZdIO7VnZGEinZcGV6LUNPLdk2G5HdufLuDhh/eDevr+3hBRZbZMlkKxzoRYR/FWF0/QGym+jqUI2EZfFCRmooJRZGZHuOKSN+BP/up6nHbaCvmQjQBPZs9dEb4Yji/j/+Xd6/C5T30Zw0cG7d6mFaYVeAXaFmIO1jrbaQ3ppGLUm1tZuBSNIcnNkGBQcuKe6+LTKnj7jdfhrPPSWH62nXyDEfjUsSQn5TUq8e6Rdp5OwK7Pvi9b0bUCBAFQzS/B4KEIT2/sw0/u3omtmwaR629437BtyxRRUNuivrbd+kpIHNnacWwfVRiVdITzL1iDj/3PD8onTt0PPArwzEO/bMPJlt/82LlpFz7zL/9bNqNLxU6QVcSrNDaORvoUt7TCWiEdnpavMboZRbCBombQzWcOv2AQ6c52XPz6DNpnz8KN752JttQiLDjVEWl4RilRU/tK/iJ5aAVYYFpOZg8d8rB5607R82zfOo69LxblCA7KC+N6EyS3bQokc1M26eRsgk06gTxdTwtSSYelJfzJu27CbTd9GB3dLfHnmpiBvFuYb9NWaudnKPgJCvYMP73AD9k+fN/j+OYd92Dn5p1A1FZjP1NqwwZbczbec8NyOWJGD09UqNNO4rWG7ckLLvc9TMbvEli6Io3uhbOlQ5h89rwKwsIs2U9Vf7AvQDk8AhdkHjjjwWE5z2rLFTVz1ReVsxuv1ZrWb2gT22jeR2NGKPNVtnLLf7sBy1Yvkrdph8WZ8g5TOTZgP+oeU3yzwvQ7UAcP9uLuu3+AH3z6Oxga7pD3NmYoJoah6L6bUgYrSedQvlw7lXdHglCa3UOV/KZ5XkBjRpSJZUHCZX5OwGU0gXTzbSyzkSDia62X65NgfGvdIBnV/5HXUw1QqY7JyfBV187HR9/9dzj9kkXIZLz486Xulyf0O4J1wCuvZ/ZUnjERWRC/08dv4B3qPYx//5svY9uTDyM3xHcCUCddM22bMky1EWzAdKyJhTnULkAwTu1o9D6j7FFIt5N4Wxy1opz4bBqNlmt3lPGGEoN2riZu9G06zZN+xRGtCXwpMSofbPnwn38IV15/HtLtfCtIBvxiGjnJdK4OeDeRaC3FLNRkQMmHzpV+nnpkt7Fttw8Kz6ZyqmK/re0AH1OWA6A8po1X8Blp2c0U8c6WE3uav/r2Rp3UIdKINQFxynLTaFh9ZkOQXeeOak6iEUqYu6gVN9/6Zvzxey7DgoWd5hVcrD6VYU0+T1SXX+M3QvSmUr9OuiLvywdaQqQ8H0eGR/Dzz9+Lz//sy8CLy2VIUh8RTzBWcTZl5asFNPoKCuO1E1yf8Qqwm1bTN+Z3rGsnL+HTclbJEX9dAnHSllN8+XSEC65ejRvf/VZcee2FQowtHeZ7gFosJ9CjuaYUT9D5ySEdLgo+JR46/bQFvx/Cz4R+/jufwzP3vyA2MKlSNgZfKIivGKHzykbcsick6qhLXsaQFpsVYxFWO/BVB7bbEVHSvB+mHNn3xFDPU7NVj7fmTOnN/zW9vevWKX6AaeisFNa9cgbIVi68Yg26T5srH3rn++CNzst8kEXx4WPTsZumwJuSpn65S/m+jgZ+aYHDKt+XxxPrN+HbX70Xmx573hjucHWnWrq64yiaexNfgWj0SX3sHJunjIgmj0vU0Z7VZ5w0TTvI6VSWRbbTsbAFt3/w7bj67VfJtz/8ND9RXUQy0dH0C2eKkRbZ6B8VeCbWDNTXDDgKOAL4QReCTzF0ZCSHh7++DV+684sY7qvtS+rkpM9O8R0gBNRprhV88eVlPc7ImJKpE6H5OVEyOnjNUUSnoqHDcoTPB3lc+ydX4fY/fRdOPWuJCBnTfeXSZGT+G/Fy7zE8LfDug27YzUDB12HGD3TxlMbAc3l88fNfFFMP1/LKVSLFDXcypOItTKVQrZSQCIzv3H7lgtoRLmUDxjw8Mi8SKqaHceHFp+KdH/gA3nTt6yBvjUwbBRcJzmUhxMd17j033g1PC7yb6FhhnQP4uZ0kJsE3vhZHIvzmJxvxnf/4Pp7f1YNkKkKlRIWbYUFT8mzg38ICypbvH00pNSWjaSIcsGMqZ1KH0rl5EaSK6Jg3Q6SVd9/2dvmcNHdDw0Ih/s5hI/DMxgX/FQe+GeU3xmkFWLgo34bL+Oynv4R7v/JbVNsmURhowQzes1uGAlMD6HXAODgqq5GoRiD12kl/rCCtwyqJSD4pwZMoXC1fcNXr8U//9gnMWdSJdIsxwmjMp7HNen+6eL3v+q8IxbsZNoYJvo8SejdP4O/+8V+wfd0hFBJ8rYqRdmSLTCffY4HXeF+v1beF13VQY4WaXJOtLV3dhr/451vw+nMuks/GKdW+HDDdrI/13HEHnmxI9T8UPx95aCPu/Ptf4IWejfGq161wvFAhmK5zJsGmE7CbVsM2D8NCanp0XRzx9MmCFV0iHl5z/aXylWI+Oh2la7avhP+qAK8V5VfV6PoOjOOe//wpfvCtn2G49yXs4PMhperpfJN1038dAbHPd9HMreKtN12Ld33keiw6aalIK/qtWmZyrAVQ04JeRuRxB5510cmXYX7ajt8TzI2EeP6RA/jSHXdi02O7UeFLfuypkKPWfzrgLXXHz+oIYZnygs6ymPpxg2fVdS24/ea/wNo3rkJbNiufhKNIzLrxq2R0ymri/F7hwHEHvpHXuSIolW/jh8fx2/ufwHe+9X1s27IDqeqspgulOlFUQdBO0Gv1VVKheKWnOFAUNe0tt74zXnVy40eo/Bh6Fc32lfRfFeBZYZeCVAGnB4spnu3ZfRDf/dJP8Kt7H0H/kYljU7+Crn4zVCzoHfOSuOptl+B9H3qPbEqY/YYq/Eztkxeqrm2WzfGIO+7As9JK9epT0qEeiAsvDm86DnHufG19Yje++oVvYuP6p5EfMOIcd4iUP9eBMA3o1JJy6zT083jbW67E7R+9FYtOXYigPZLVNvNg2eTjWifGaVj9urJe4YvjDnxjI3jtOo4Edw7gvcqIhwd++euj73wp6OrzQasb4iKIuz9/9vH34ZLLzxPxkJ1aSQcIihXZhiObIeWrk3roHoT19d7x8I878Kx0I/jTNUTTsSPI/w8c3Cvs5we/ugvRzgVyDCbWXtpJk9dc5dJxgp7RGYq0QrayYJn9pkhkKF13grR8LU+vX03/VQH+5TTIBUNWvpNlPL95B774qc9g07P7hf24rIcsiLtAdG+7+WpRZi0507wxm191c/N7OfU43mlPSODZaOXBCgD3fZ948Cl88ZNfx6EXB+AHtPMsyvc8Tr5yJv72z/4Va960WJR0ulmfyWTrJnXN60TwTzjgCQqpVDWeChInwomJIVG+ffHT38CPvvszBEkfH/nw7Xjbh/443lymmpqOawV+RdKVpjSvE8E/4YBX1tA44SpY5P3c9+0bPohM2CabElRF66pTvz3O9I2rT81b83ot/RMOeIKhAAn4fCtIVIpB1F0w3qP8rxNmHH8MiUTzfi1BZ9mN5qivdX2kfGUPSrH03RGgYZcdiSmKIw42a4iCTv+1dick8HWg2JcKkbrpUjwkwCU+d/Ht1xEUSLlHFpOo6dH1npundqwb92qHT3jglerJUuhE2rGGVgSYYMvipzIpvgJNX8N8juETAXDt4P8HtW6BQgt+GU4AAAAASUVORK5CYII=;" parent="1" vertex="1">
                    <mxGeometry x="366" y="108" width="94" height="116" as="geometry"/>
                </mxCell>
                <mxCell id="42" value="스플래쉬 화면&lt;br&gt;gif" style="text;html=1;align=center;verticalAlign=middle;resizable=0;points=[];autosize=1;" parent="1" vertex="1">
                    <mxGeometry x="276" y="108" width="90" height="30" as="geometry"/>
                </mxCell>
                <mxCell id="49" value="대학교/서점/한국과학창의재단" style="text;html=1;align=center;verticalAlign=middle;resizable=0;points=[];autosize=1;" parent="1" vertex="1">
                    <mxGeometry x="10" y="190" width="180" height="20" as="geometry"/>
                </mxCell>
                <mxCell id="51" value="메인화면" style="text;html=1;align=center;verticalAlign=middle;resizable=0;points=[];autosize=1;" parent="1" vertex="1">
                    <mxGeometry x="348" y="232" width="60" height="20" as="geometry"/>
                </mxCell>
                <mxCell id="52" value="년도별 권장도서" style="text;html=1;align=center;verticalAlign=middle;resizable=0;points=[];autosize=1;" parent="1" vertex="1">
                    <mxGeometry x="54.86" y="877" width="100" height="20" as="geometry"/>
                </mxCell>
                <mxCell id="53" value="우리 읽은 책들" style="text;html=1;align=center;verticalAlign=middle;resizable=0;points=[];autosize=1;" parent="1" vertex="1">
                    <mxGeometry x="730" y="10" width="90" height="20" as="geometry"/>
                </mxCell>
                <mxCell id="56" value="" style="edgeStyle=orthogonalEdgeStyle;rounded=0;orthogonalLoop=1;jettySize=auto;html=1;" edge="1" parent="1" source="55" target="27">
                    <mxGeometry relative="1" as="geometry"/>
                </mxCell>
                <mxCell id="55" value="" style="shape=image;verticalLabelPosition=bottom;labelBackgroundColor=#ffffff;verticalAlign=top;aspect=fixed;imageAspect=0;image=data:image/png,iVBORw0KGgoAAAANSUhEUgAABDgAAAisCAYAAACtR1KuAAAgAElEQVR4nOy9eZhV1bH3/z0N3XQz2oCCDCKIgoCCigODIiCogKDEEWejRonBmDjEKBriGG/iFRWj4IDG63CVQUEFlUlNoqCIBlBRUJllHruBHs7vD9/Tv92711C11tqn6fetz/Pw0L33WrVqTbWqqs/eJwUgDQupVArptLUYGY680G0niUpXnf6uZXX1ACCdTrPHy9amrW2qPOq9pOY7LjfeLwDssc/Ui9e19SGJ9e8z7y76cOfZtm65uK6XbK/3DEnbT4494ch1kRdqfbvq42pDOPMVom2TTaISQkaSJKkfRbbP+eszHy7rg3q2q/6P43MGc+HYTFcbEmJvuOjBKetypoaw2zbZvvJC22FX34OqT6g6IXE5iwG7T+rSNnVf6Pxdjj3N4LqXk7BXtvYAnr/mE3/p5GXDRnLb0fnIAIxrhutLhTiHMtQC8Keooq7Y6lPk+8jI3NOVUV2P10mlUt7jEAKXceD22yYjfp8ayOlwPZSiP9v6aNLftd1o2ypnkmMkkoazP6L/x41VEm2HDGqSKBsCzh4M3a4u8UbRwVdvit3kjoFPn7jnRGjdfQjVVghbWB1nYXXtIRNJ+0YucnzPYx+9XPayD6ZAmbrXuTaRq5+qTVsdXVmOH6qq64Jp3yX1ByfTz6HjiWz69kmsqyRx8Q2ocl0SBUnI5pKkzXf1zzg2JQlCnivU/c0ZR1XZigQHhSQdQV/Z+5sDFNoJCBFshAhCM/Kz7eS44KJjPODXJTYy93WOV0iymXgIbdhN4xctn6QDGpXHMazUg0VVPwT7o6wkDlHqIWayPdmwwdT6PgFKCD1MMpKww6Ec5LjtVV3XyQ/lVOkCr5C4ns+Z/03jRO0j1/YnOS77g29nSjIkYf91c2iTRXHquXrYfnbBZfyi5ZP6y3y25LmsHZ/2uesgybH+v5GQ+yz+u20ObHspSX8hlHxXXPdRpnwtAH9SOY4unaIqE3rz24IojpwQ5aj6cIyUayBNNWQuTkboA5Gjj2v7SW9Wm+PCnbNQupjasV3T6ZaNYMmko2qcfHSiHPa+c+qql6uckAGgqZ7qDOHq4to3nS6UAI5jd3zKUjGtQds4Z0M/an2XueTuPa5zHtLfCFGWsjd1azlzz/fRA5c68U9WcdcdZ+2E8qV8zlSub6zbp6Hsnmud0HDnniLP5ue6jqHvXqHiY/ez0Y5JVhK+qe2MNq2fEH109dcENUn5/b6ozgyA+QkOncBsEiLQ5hxQqnvUA9f1OSJOIMBZcKaA0OaU2D4uTpVlk0HBx9Hl6hbaKXYxuLq6rsYmpFOikx3SmXNpP7QcXwc7KaiOfUidQjpxrkG4j311keHj0OnaptRzHZ8k0Z2BLkFkiLLcADv6c1K6cmRm8y+oIe0BV/doeYotcJHPgbpeuXbC9H4U05rztd2uZ1B1JQ2yYb9M6yxpvyekb+Zz5iY1zj462d5T5CPf1G6S8kxxo68+LraNspZcdTXZjGz7/ia5ld7BkW0HmOuYqDaEzci6LIzQH9tXyXE1ftl2iFQ6cJ0O6uEcwuHKZtlQOtsSZiENfiinpLqCq7geut99ZbrYsBCBv08/9gfbELKcT7vUaz7tUAMynS7UAMInKNfJ5Zar7v2eBJz5cpWv+5k7ByHPh9DridJ2dKypPlsIe6q7n6StdPGRVD+rfjfVpd4LOd8c/eI/cx6J1rWVhB9A0Ul3XfWHQFdfU2f/XfXjYluXPi+CjNuDkHDjytCE3MO+5X3WC/dsCH2eusbIUSoeUYkvNtXmTMqxCtERn0PRNsGhnv8N8RgNl6SMnWmdRMuFeht4knV8D8kkDbTqQAili6tzazrIKWPpavCTPIx8DmxqfV/HnaqLa1mXACl6zeWZcpe2KLJ8zwNOwKb6XXU9I1dV1jYfIdcMZ0x9ncNsn3c6HXzGkrMvqOegz7joAsUQtjyETr5tJBWQ1MS6Iduj7AFbUJv5n/stD7Y6PnPuc5bZZOp8m+r2ETMyVfqF8sOobYeUGwpOf23nvau/6kuSMVVouPGJbb1Gy7rqAzg+ouLqPPqW9zW4Lu3q+moKPEM5kJT71LLxPoV2mKmHV8ggR3dfNyehA2tfBz/U3HLaSeJQSjJg2F8IsQayGcSGgrK3bHXi9ULbgCTH0DZ3FEeSIpvyCOD+QqbfoXXOpj11wUU/n8DOBaqdSiIo5MpyDRq58xD63DeVtcnan4Jk1fhTP1ljC05M9X0JMZY22ZmfOY8mcQM1171q63c0NqHo7QplrSdtZ0xyff2MpOyRDy46ZdO398E3HlLFuMG+JparjK2czSGmGh+OQ2TasByD4ZpsSSL4VMnw0TEJQjoYIer64BqIuRwE2Tw8kpadDSjjla0+ZqOd6pgvU+Cb7SCLKtsWnHBlugQuunFytSfVQbadr6gMlzMt6cCXopPvmnQNwkMlp7i+me982/xCW11ffTgBfXXBsWcc/9h2jxOYu+pE1SH0HHHXTsi1FspX1+nkaueo6yuJOcnIDXVmZ65z7FYIW8b5PSlCJmhCxF0h+13lExw25yPEJEQXp2t935fDqQ75EA6S64HBKaOqYzNUro6Wb1lTfdfxc61vK1udQadpDkMacU4dn/3pOpahnbIQTrBLGVv9kPtRVS+kY6SSr/vdVt5WlvsMJ3Wt+QRGVEIH7irZVPuQ5P7T6eX7Uu1QeunGytefCTGnXKcuG/aM2i7XybWddZR24j8n9VJCSiBGXePcwI+qX7ZJ0taHIok2OTFQ0kGaaQ584o+QZ4YPSbbps16rYyy4OricBaFit+jPScXwIfwC529R8W3YpR4n+A3ZbjYJHeDtbyQReGWzzyHbUh1e+9Mna3QkeThSDmHd+4JCtL2/fpVcqD0fHTNOIOhDEo6xzbHkBGMhD/0k6/iQVCDAfUxTJ4NSVzVXlPlL0jeojqAvbiOj/+LlQn1LkEkWN/HBKZt0IOYSoFIDxWz6okkF1Jx6oV/On5Sfa5o/7p5J+muqdWdz1PaGIFTAySlnK6vyVVzaCKELtx43MeWrR1L+hM0O748+c7SsMcGR5KC5KmxzfrLxDShJ47uZKQ6iq7PI0TN0AB9qHHzqmgLDbOilk0OdS12dkGOrc7ht9W3rw2X9+Owl2xiGCI59iY8JNeDj2Enqeletp+pwAqubbOvjGgSG1jObjpvL9UxAQLGNJllcXUL1QVc2yZeE7g97K25XXF76Tplbk81yOa9Couub696ntmdrn1I/5BpyOXurwxZy2qLGN9GfQ79wPlrexW/jyOeUyfwe4tOXHPvu247PtyiFfCQpRLyikhuiTjb2XMW3qFBwcWA4i9onuHapsz8FKipCHRLUw1m3uXwctGwZlRAyktYtFEkZGK6Dn/R+jdcP9dfIkIQ83F3KJilDJYsaHLroRQleKPr5kIS9cnU0k8BVdggnKWQCwRbwhbI3Se2jUPKy8Riaqwxfp5Y6l5m2kviWDpdglIqLX+Xjn/mMAfW9SiY9Q+LThkr/UGuVe4/bjkt5Hyg+IiX54LsmqPPDuea7RkPuf4oNo8ijzA/1POXuDd+4hGsPM/dMung9ohIq0DLdd3WKMmV9nahsGRNbW9RxMC1wqh7Ucq4fWXUZ16TngevQUh3rkAEB9z63LVX/fQO8UE6CqayvTXHRgXsgJbV+XYy/j0xTeZ+v2bXd91lHSa1BU12qo8BpM/R+M9XPZluq6yECSc4ccHSjtMORna1AioPNH3K1K9FP0ZjK6WyrS4Bls9OZ9qL/XOH4aRT/iWIfQ3yq0aQL971IPlD3D9dXiZcJrX/IeQ4VPPrUy9T1nfvqiBFD1jPNhe5/V1TnHtUexX0wn7NPJ9v1Xshx4eiSSqXCvoPD1TGmltEZtnjZpJ2zpIy7qT0fQxPCWaTicuByZXIMIPXnJP/ioDOS9erVQ6dOndCjRw/s3bsXxcXFKC8vd5arMoZJzneo/U45REwys/HXIoou8fLce9Qyofezqn+mPtvGg+OghVhDtr2cpMMYcvypZSl2zLRGXBzUUPMXqq5JRjbOu+i4uAaY2QqyfOtUxxyHGhvb/MR9Sl8/K8kX54XaL9TEUei2KXJcbbWPHxByH7oG/9FgVvcXd2qwy9Ej6f1PlUWdd9P4+Orkcmbq/I39xcZz+uGLyQ/Trd1QvpnWrgEgWQWTYdR9G4nJ6LjW4+qajQCICmc8qDKS7J+rThz59evXR15envJ+Op1GcXEx9uzZQ1p7Sempqk9xjHQ0atQIJ510Eq666ir07dsXhYWFWLlyJV5//XVMmjQJX3zxBfbu3eusZ1xX33rRvpoeazLZiLy8PDRs2JCtD/Dz2O7atQt79uzJyt629ZNSnnPfVKc67FcIOxUvG2reKHOj+j1DKB10sjhrIfTcctdtEjro5IawRzafAbDb4aT3UzbmNBtybP6e6zp29QldZCflUyZVLxttcOqGXMuh+sad0+o+e33tr0vcVV2EHK86deqgcePGaNKkCQoLC1GrVq2KMhs3bsSyZctQUlLipQ/3fnWOOXUdUOQA//85OWnSJBx88MHGOmVlZTj55JMrteezr7JJCkCaGqT4HGxWRQIeZiHKuhxMIQ6zJBxBVx11sgGQ14LJ8axTpw7uvPNO9OrVC3Xq1Klyf8eOHRg/fjymT59uNWYufYn+7pKoUMnQ1c/JyUGbNm3Qr18/nHvuuejVqxcaNGhQpdzq1asxe/ZsvPrqq5g/fz42bdrkvFaowUGSpFI/f1KlR48eOPvss4066igqKsK8efMwd+5c7Nq1S9sOUHX+XII+Vdlsjh9lPVHvUfcl1VmM1rHpr5MbIkliK+tLdQUmIc8SF3znzseOUvVyrQ9UPbeqUycX+br5qQlngSu2NZVUEGm6R9kbvrYvJL7JAE5/Q/fRZ736zJ/qnss4ho5NksLWNmC265wYMSOvWbNm6Ny5M4466ih07NgRHTt2RIcOHdC8eXOjrmVlZfjhhx+wdOlSLFmyBEuWLMEHH3yAlStXWvto64etfxT5odpI+rxduXIlWrdubSxTWlqK3NxcY5nq8tMopFX/UqmU8jr1vkvdVCpFkhstk/mZWy+UzrY68XoueprGy7U/Ln23zY9qXky6Hn300elFixalTTz22GPp1q1bJzKnPvPIqXvAAQek//jHP6YXL16cLisrM/Y3w549e9KzZs1KX3TRRemCgoJ0Tk6O85rw3cs+fa9fv376nHPOSa9evZrUbx2rV69O/+IXv6iW9Z/UmuPKcbVx1TVOnLY5dpzbRpJnma8Mk81Muu0k5jfkOVyd/QqpRzb74bOPfOY0iXFQ9aW614RqbLLlg9jum/w0nzm1+duh+78/jCd3bn1jmqTWQjba4tY7+OCD07fcckv6m2++8fIJ45SXl6dnz56dvvjii9MFBQVZX1M+a61hw4bpPn36pPv372+Md3zaUJVZuXKldVxLSkoSHQ8f/8x23tWGhjTxUxzR67rfKbJN103lMj+r9KLIp2RmVfds2UqdPEofXcYhCTJ9iI5x/F60n6p5MenasmVL5OfnG3Vo2rQpCgsLsWrVKuV97pza5jkuNyorXt8kKycnByeddBJGjBiBM888E61atdI+iqOiTp066NevH0488UT87ne/w+TJk/HKK6/ghx9+qDQncShrLq439z6F1P/55MaAAQPw2GOPoUWLFiguLq4Yy9zcXNSqVQt79+5FeXk5UqkUateujdq1a2Pfvn0oKytDKpVCrVq1kJeXh4MOOggjR47EG2+8gbKyMuMYmPqSuebSN5t94cKVRbGxqjKmdnRyQo0bZR/qbAgVrs01rW/OeMTboNqG6H3OPovboujPXFzPuzgUO6+ro+pHdBw5PgW3nK2+65rU9cnWhmm/xeeZ4uNQ16FJhqk+RW6Ic8Skm42Q9jq6Jrn9chmrOLb6tnVE8Y91ZW37nmtHKHV85s7Whu0ep0y0rEpnbh9M+y0jj7oWbDKj90KuDdX15s2b46KLLsLZZ5+N3r17Iycnx9iWC6lUCn379kXfvn2xZcsWPPvss3j88cfx448/OtsNl3XItQ8NGzZEz549kZubi1QqhQ4dOmjjHVU71LO8fv36KCwsRF5eXkW96KM/pnYOO+ywijW4b98+7NixA9u2bbPWA+w+Atc/5ewF8js4dI35lFPVy0CtX1BQgEMPPRQA8OOPP6KoqChR/eL1ou3/8MMPKC4uZsuNy06lUmjcuDFatWqFbdu2YeXKld4HO8XhBvycENP8qdq/+uqrMXr0aBxyyCFame+99x7uuecefPjhh8Y2dQaJ02+qQ2qSWVBQgOOPPx433XQTBgwYgLp16zoHIVHKy8uxbds2PPPMM3jmmWewYsWKisd2KH12WRM6KEmiaHKjZcuW2LFjB95++23s27cP+fn56NatG1q0aIHZs2dj27ZtyMvLQ4cOHdChQwf861//wtq1a1G7dm20adMGvXr1AgB899136NOnD9auXRvk4PEhhKwkxt9Wnhp4h9QniTa5qPa2ad9wdHKZj7gu0euqe9x2uX3R2bYQdiOpvZINuZwkBKcNzj2TDq6ydfJtcnz6WxPshKot1/XuGyhlA5f1E7ovnD2YVHtJ67M/rAWbr2uzB9Q+RO+1atUKt99+O375y18qH0NPmtLSUrz00ku499578e2335LrZWuOosmNKNOnTw+y3jL/5+Tk4C9/+QsuueQSNGvWzDkmSafT2LJlCyZNmoTf/OY3FTFIdE1lfs8mpjFKU/6lAnz01Od+9N4ll1ySnjZtWnrt2rXp8vLydIby8vL0qlWr0tOnT09fcMEFpH65/KO2n2J8jC8vLy89atSo9Ny5c9ObN29OR9m7d2968eLF6QkTJqSPPfZYq0xOuyHmzbXO3Xffnf7pp5/SJhYuXJgeOnRo8PZd+mQa44YNG6bPP//89KJFi9JFRUXGPvmydevW9NSpU9MnnHBCOj8/39gvl/lX1aGuqZycnHS9evXSQ4cOrfRYyjfffJNu3LhxOpVKpQ888MD0uHHj0itWrEgfddRRaQDpwsLC9B133JFevXp1+owzzkgDSNerVy99xRVXVMhYvnx5un379k5rnNqPbK0bV505v/vqqpJFla0b2xA6+cwF9YzhyA/ZJ0obtj6Y5shlzbv0P9SY6PpCOftCz5dKl9D9NP3u01Z1rGVfW5uNOUrqvNTpEmoOQtr40PPC1c3V7ibxz9c2JFGHu3d81oatLnWu6tWrl7777rvTxcXFifrCVPbt25f+7//+73RhYaHX2Ib817Bhw/QZZ5yRPuuss6r8C72GateunV63bl2w8dywYUO6QYMGwfcEdV0yZLstYJ+N4uqcdO7cOf3xxx+TJ2HOnDnpI444gtSO6UDM/B6q/fi/gQMHppctW0aSuW/fvvSTTz6ZLigoYB3ctrmiOs2cdoYPH56+6qqr0gcddFC6Vq1aleq0atUq/cYbb1iTAZs3b04/+OCD6UMPPbRSW3l5eelu3bqlL7vssnSPHj1I46D62WPjVPyrW7duevbs2ZWSXdmgqKgoPWHChHRubi7bAfYJEEwyM8mNH374oZKumQQHAGWC44ADDmAlOLj9C3WQudgz37UWKulCtReUteErK/TaS1JWNv+5BrI+dszH/tvGPb4WQvgXvrYrySSIqb5PoMsZN13bLns2Wo9ih2znLUcvV//GN3AMbTtse6K61xlX51Bj7VOOq6dtbkOsBZeYJ9R8UeZJN1ah1/s555yT3rhxY1Z9YSrbt29PX3XVVUHHNn6PUs6U3HD5g67tX15eXtBxLC8vTzdq1CjY+CWxDgGkqzwIlf4/HzVJeT6ykDZ81Ekn09TWCSecgPfeew8nnngiWYdTTz0V06dPr3hLbErxES1K2yHaj7eX+f28887DlClTcPjhh5Nk5ubm4le/+hWmTJmifKdDZu50/YnrAdj7nk5XfR5aVTdzPScnB0cddRSeeeYZPPbYY1iyZAleeeUVXHjhhTjssMMwevRozJkzB2eeeSYKCgqMbRcWFuLGG2/EzJkzcfPNN1e8k+Ldd9/F7Nmz8cQTT+C2225DmzZttLqbftb9H++njlQqhfz8fHTu3DnIoygcCgoK0Lt3b+Tm5laZo6h+qrVn2oO6fqiuZ66lUinUrVsX/fv3x6OPPqqdj9DodI33z2XPq9qw2TNVWcpaM7VrmhPKfQq6fUItE10H8XJR3Wz9UMlUoVrXcVmcdZwtbG3r9rGtvm1N2cbK1KbtvkoPlf+gkqOzWarf4zLj68q0JuNtUtYPFep60tkJnV2N9pMybtF7unNeN7a6tqJzZjsb4/Nr0l9XR6VTHJM8Uz1dubjNVl3nQNnjqp9dZFP9a2pfdGOvGxPqWHHnRKUTpbxOH9uasq0Fik7RfUIZJ+r5bmqbYxs5NoRDtK22bdvi1VdfRdOmTYPIDk3Dhg3x9NNPo3v37pWuU8afanNMfkw6ndY+lmJqx+R7Vwc6fUKdqba2qOVrcw9PXaOcRIYtAI8fpAcccACef/75Kt/Xm06nsWzZMqxevRq5ubno1KlTlY11+OGHY9y4cRg6dCj5YIknZ0K1H6975JFHYsKECahbt26le2VlZVi6dCnWr1+P/Px8HHnkkVXknn766RgzZgz+8Ic/KHWPozNylPEwlVUFdLVr18bDDz+MRo0aVQS+Z511FgYMGIB9+/ahbt26KCgoIL1oKJNAaN++Pe666y7s3bsXderUQX5+PmrX/vkduSeddBKuuOIKjBkzhtwHbj9NZUIdFK7E58O2zimOp62d6LWcnBwUFBRYkxuhAs6o3qa+m8qaZMbx2RsuDqxKX44t5SSWM2Xj/3N1VrWhsjm2tWcKVLnnlG4uqP2jJopt8qhjS5lL6tnsMqe2ICBaxlaOsiaj+kXr6eaZGszE26PuD5XvoTrrbOuQIp+zdl3sVnRco2Nq051iZ0KcGy721ubDmHS1XdPp4WIPXcdJpb9Otks9ij6u90PYVGp57v6i2N1MHc7acoFjy3V7TiVD1V/qftGtV9Oe1+nToUMH61eKVjepVArdunXDp59+WnHN12/T1YtfMyU3TONN8edMZ7PPmjXB9atM9tjVtpnGKifuJNiyMFEh0X9RGTolTL+rlMsofvvtt6Njx46Vyv34448YNGgQOnbsiNNOOw2nnnoq2rZtiyeffLKKzEGDBqFHjx5WHeN6ZMpS2u/Tpw/atWunbf+kk06qcn3MmDFo1KhRpWtLly7FqaeeiqOPPhqnn346TjnlFBxyyCF46KGHqkzwNddcY/0EhKo/IYkv7ry8PJxzzjk45ZRTKrVXp04dNGrUCAceeCDq1avHfotyTk4O6tevjyZNmqB+/foVyQ0AOPDAAzFgwAD07NlTW5+7vilUZwZVh8noqcrG/wJAdQaiv1OSGyrdbNdDyOH0JRQ2Oxi9b0oUU9aqyemh6Bmvr3McbTJsQZZOb1OdqE4uBzY3CUGpE3eGKXqoggvVGuCuX1N7qv91ZNaZrj+qBESoICXaLnWOKLiuPVs5in0NEQRSsTl9pvscVPZFl1iitMfdv9Rko04/U1AY0vlXtRnifKP65KbyHN+A2ianHjfRCqj3sSm5Yes3Ne6wlbONZYg5VwW73HVAIX7+qM4jim1MpVKYO3cuNm3axGo/2+zevRtvv/22cY65a9+UaM4Q/7YUU1kXG+ByNvti82l05annCaWMaS/mxAu5OhqcrBfFkYpy2WWXVfq9qKgI559/PmbMmFFJ5q5duzBy5EjMnDmzUvlatWph2LBhFeVs7cU3OKV9ANi5cyeuv/56Zftnn312pWsFBQUYMGBApWubN2/GkCFD8NFHH1Vqv7i4GLfddhumT59eqXzjxo2rfDIkU8+0EDiOiQ7VQZ5KpdCgQQOMHj2a9ZWovmQeibnsssu0b2qOr2+XMaA4UtmGEnyaypmcPYqzQE1u5OTkoG7duqhXrx7q1q2L3Nxc5OTkID8/H/Xr10fdunWRl5eHVCqFOnXqoF69eqhXr552HakSBTYDa3JCXA4FnSMUHUtVm9R2XQ4rVaCuum9rO66Hyz1qG7ZAhrO/dP0zrQdVoidaJulAgDtG1LYpDkemfW5CQJXoNMmPl7ONt0o+JXHgsr5VUBMX3AQCRa5uvH3XGXVvUNuhjgfHN9TJiq/P6Doxtemzt+I6uJan1Kee41Q4Qb3OTkTv+/o4HLsen2tK36njTkmY2NaNytdwPafjP6uuufgp0T1PCYyj9bh+bdSm79mzB8OHD0dZWRmpbrZJp9MYMWIE1q5d6+XXqMqbxqtRo0aVPrnBnUdKG1Q5oaGelaqyNn/V1Eb8uipRp/wzOmdDqK6pNhcnSxP9fciQIWjWrFml69OnT8f8+fO1Ac5TTz1VRXb79u1J/YhfP+uss7TtR/sT1YXSfteuXXHAAQdUuvbuu+/i+++/V+oEAFOnTq1y7eijj7b2gXIvRMY5Pz8f1157LTp06MCSFYIGDRqgV69eGDJkiLGcj3NCWS82Nm3ahGeffRbjx4/H6tWryfW4OsXvuWaE4+Wj+ywnJwdHHHEE6Z0b9evXx9ChQ3Heeedh6NChOOyww1CvXj0MHDgQ5557Ls4++2x07twZBQUFOPnkk3Heeefh7LPPxgknnKDVzRQYUGyUr9FX6RCXazL0lOCUq6MucLTpE0IP1/F0TTRREnDx66prlCSTKhnBSVBwnWhqG6ZAJtpnqo7U4EsXhFBtiim4se1tU/LDJ9DQtRcS1wA4PiacvWZKJqmuc5M2lPZ97a0q8DLtIU4AwQ3ofINZVeLAZoOoyUpqsMFZ91RbZZMRP0tMAZvr/guVDAHsNipThrt+KG362p+oHeXsZ91ZzPGbP/zwQ4waNYqrcla4++678eabb5LLc5I8unFu2LAhevToUemxlBC+kk2f6P9JnWdR2ao9ripL8cFsCT5Vv1TnWMXn/H2cBFUndHK4srt1675QZ6sAACAASURBVFbl2ocffmhs97333qsykA0bNlTWue666zBy5EgUFhZi0aJFuPnmm/HNN99UjEfXrl2N7av6amo/I7e4uBhPP/10JbnvvvuuUscMK1asqHKtSZMmxjpxdAbZNi/x7HfcwOfk5KB58+a44YYbKj0+QuHLL7+sSO6UlpaicePGGDBgAE444QTUr1+f3K/27dvjggsuwHvvvYcdO3Yoy6nmSxe8mH6P16VQWlqKW265BRMnTgQANGvWDHfffTfOPfdcNGnShP3YjkoXlaEIEeyq5NSuXRvNmjUjvVC0efPmGDduXJXr9957b5Vrv//979l6mYI51bXQBj+qhy5I5ATyvrbYtF5dHPSQjqNOpq6dUM6urR9RG2dbLyb7QLEV1D5R++CauKWsy3i/VGuds15dnbvQ60NX1zaXtrOBena46qQro5MRaty4+4lalyJH5+Ry7b7pfnRt+86hTfdoeyq94uVtQXT8HDSVicvj2Bjq/jatN5094cpT3af6O5R+c2XqytjOE86+1uEyN742ydTGE088ga5du+Laa68l10uaN998E/fccw+rjqt9y6B75wZXrusZYrMbvuj2jG0vUBIUUeL9oI4FLxJVKKr73UWGip07d1Z8WiLD4sWLjXULCwurTOiuXbuqlOvduzfGjh1b8TH4Vq1aoX79+ujbt2+F7JDtR+t88cUXuOaaawCYxyF6T5WkKSoqMtaJwzWm1AWVTqexd+9e5Tjr2LNnD15++WU8//zzWLZsGYqLi1FeXo7c3FxMnToVp512Gq6++mplkklFWVkZioqKUFJSUqUP1MNH11/dYchZ8+Xl5Vi2bFnF7z/99BNGjRqFxx9/HNdccw3OO+88tGjRIkh216YfN9jSBTNJGU4KVBvkEwBR0e0rSgJGhYt9pexV36BGpaPKUbU5r6p7FGdXpxvHYbXJo9iKeD9NwQrHobT1nxN8cQNHWx1VP7jBiqkfuvZtgYdr8EmxFxR7wv2dqw9XRqY894zi2qakgzEb3GBUp4NqHfmsKw7UM9tmR3z05PhHtjIu9ts21lwbZoPjJyS1BrhyfebIJfnnQ0buyJEj0alTJ/Tu3TuRdjgsWrQIF154obVcfC3H4YxZr1690KBBg4p3bpjmgHLu23QOcX5w0fWJmuSkyrVd11FbZVRdHCPfDaYrM3bsWIwdO9bakSh9+vSpcu3rr7+ucq1v375VnvHv3r17JV3Gjh2LRx99lDWwuvZ1E28am+i9/v37V5Eb/zQL97DhbCzdnKVSP3/UctOmTbjuuutw//33K1+qGufFF1/EuHHj8NVXX2Hv3r2V5G/duhUbNmzA9u3bMWrUqCpf6xRny5YtmDp1Kh5++GHs3buX3AeVY6Mq6xuM6SgtLcXSpUtxyy234PXXX8dll12GM888Ey1btnT6RIdrgEHd81GjX53JDUBvg0IEPNwEkE4W1U7GDwauPY7Ltq3PEGs3vmdU+tv2nkqmi26qeqEPdZtTrAtWXIMuU5tUp0YV8Ora1LVHgdNP09owzaNuLyXlvEXxSSJRsdkvV0fWRUdOHd+yFD+QKp9qA23ryyVo9C1L8cN81popGNGVo9gG1bo12S+dDF9/NWRy1SeJRz3nuHJ0qPpha5drJ6j3oj+XlZVh2LBhWLRoEVq3bm3tR1Js3LgRgwYNQnFxMcuOc+Y+Xr93796YMWMGLrroIm0d2xqxJWHjdVX2K+kkLfWsVpX31Y0iKyc+KKqffaFscJUeKuNLaeOSSy6pdK+8vBxTpkypImvlypVV5GzYsKFKu7rFp/rZ1H5UVqYOtX89evTA5ZdfXuna4sWLK+SqdOVuUNt11eGVWVjl5eUoKSnBRx99hFGjRmHy5MnG9n/44Qe8/PLLWLp0aZWEBPDzmG3ZsgXTpk3D22+/jc2bN2tlrVq1Cn//+99x//3346uvvkJ5eTmpz5m+xPsV76+OTP9d9kq8TmlpKf75z3/iN7/5DYYPH46JEydi9+7dbFlUR0hnmGz9STKADIVvkJb5mevguCZFbPV0Nlong6IDZX2Y2lPd4yRLbbIpupnkV2fyzSVpoLI9pnPH5qiq5ITar5Tx50J1ejL2yTa/lPkPMR4mR06HbW/ZAsmondL5IS62KG7/dLq6BAJUn841GKTK4/qTuvHg9plallJGZXepMlR66fwfqpwMrskB3ThRzzRuMkVXlmqzbeNEOVspc6YKbilyTWvVNcZTtU+Zty1btlQkF6qDkpISDB48GOvWrQNA8+kpmGKFXr16YcaMGahXrx5bblymqh3dPOj00ZUJAdfnChk/UGQp/0QcNU5UB9fmdNgmRXeA6ja2zkAMGTIEp512WqVr8+bNw4IFC6pMxgsvvIBp06ZVXNu+fTv+/Oc/V9GBomOGwYMHa9s3BaKqewUFBejRowcefPBBvPXWW5W+Unbfvn24/fbbq+jIwZTNjOsSReeMptNplJaW4rPPPsPo0aMxefJk7duUZ86ciWXLlmHfvn3GtrZt24ZPPvmk0qMdUVatWoXnnnsOTz75JL7//ntrcsNk/FVGwXZ4ptNppzdG6+SVlJRg4cKFuOmmmzBs2DBMnDgRO3fuNMrK9Dm+J7iOZOY6J3FTnYGkTQeuwwf4HQxcgx1Pprjop7vOsbe6A1LlWOl0MSUKbX3hnBuqdlXlqQkcCqbzx6eNuH2hOLFx2aq54QTdSSUpOY40JxhXJR6piTaTXaQGLbYgM1peN0ems99kd1X3VOeXS8Cnkhf93ddhdnFsdWPhGqTF26aMu8sYhgq4dWWoc8Rti9tX3Vja7Do3yWSrz7GbHHQybT6zDc55H70W98vi/8fl6nx33fq0jTd1jcbnf/HixRgxYkRiZ42Jq666qiL2cvGHueV79eqFmTNnVkpuZFDZLeq5Y5pX037j2gYfXNtIMoaolOAwbQjK4Wo6BONGiLq5THrF7zVr1gxjx45FrVq1Kq7t3bu34sUy8fbT6TSGDh2KE088EWeffTaOPPJIPP/881X6QN3gzZo1w6OPPlqlfVPSJN7WSy+9hLKyMpSVlWH37t3417/+hdtuuw2FhYUV5Xbu3IkbbrgBb731llFeXP84qkQS11Cr1kR5eTmWLl2KL774QptwWLRokTVwz8hesWKF8tM2wM+PsixZsgSrV69mfXJDdTjbDgwde/bsYbVto7y8HDt37sSsWbPwq1/9CnfeeaexbOadI/GglBJA6qD0fX9IbgBmh83mDFMPGA624IcrmxOw6upw7G28jMpOmNqz2XKdg0pJOpraVf2ucwh1ASilDZtenKCQmySKy/YZK1c4a4dSPtrn6JyYkji6tlT1VeVVSQdK4GwLMm1lKUGHyZ7FbbtJRw4uiQLdHIVqRxUsmXxQbrs2/5Wrr00nn8SMTV4IGT7yODaSYrN92jfVd0222uyKLcmiG2eV7VONj8qGmM4ZF58hrke8vbgMil3PlJ06dSrGjBljLB+av/3tb3jxxRcrdHHxhzllTcmNjA4Zmbb1wtFHNx/Z9s+57bkkgrltkh7yzywO7mHi4lSbZKocoOjvL7zwAtq1a1ep3iOPPII5c+ZUtK8akPnz5+ONN96o+BhTXGfqYtS1P3fuXGvdTDu1atVCTk4OcnJylG1+/vnn6N+/PyZMmEB2NDmBFNcwmmSXlJRo72deKEoJ0oqKirQfcSsvL0dpaSlJZ67TSpEJ/NzPPXv2WOtSiOtSUlKCd955R5tA2b59e6V70fqZ/REqsImyvyQ3bJiCi8zYhAoIonbPlMxV1QvpSCcN1ZmkYpsH6j7WOZ4mh9C2Pzhtma7H27X97uoAUfAJAEK0YSI6R65JnLi/YnOkqO3YEqSUYN8W6FCw7T8Xm6/rr209J+mcurRpCkCp7ZrmxScJYtvfcd1dEq8cfXzgBomcM87WL59Ers2u6pIaKrvESerp5jvaLtWf9ylja8cU79jG3zYeY8aMwdSpU41lQjFz5kzceuutAOhJUZ99Y0tuqNp3WUumRKJr8jcU8XVj85F8ktOm61Gcv5eS48hR6pk2f9QBVi0OAHjqqacwcODASjI+/vhj/OEPfzBmR6nYNsX48eO17cf7o6pPpVu3bhg7dixOOeUUch3dojMF/PEDySWoiX+bSZQWLVqgTp06pKxjw4YNtV8Xm05XfUTEJRkTrWc7AFRs3LjRKNuFvLw8tGrVCn/84x+VLxwtLy/HV199Zcywhwre47hkw0MRKkAz9cHWhumgif9M0YNrM7ljYHOuXP+q4RKIcxPf1PIuQR21bZM9pOgQIoGlC6CpCaC4XJU8rp3nOPlJ1HeRBfD/2hXd87rxyuwF6vnBWa+cMy16fvvaZ2rSn2K/4mPIWWuqsY+vX1uiNC5Lp6ftbDMFEq5rUKU71V+JX+MEDrr5MNWhlFUF7/H+cvd+qKQvNUkVjTVU6457LsXlmfrj009uXV3f4zbEJ7GUYcSIEVi8eDFLPy7ffvstzj333Io//OnO8My1DCZbqiqfgftYigpK0tp2LdsJjThxu2DbDy72NXqfYutzTA3F71EcPBMcw0g19Ol0Gvfee2/FV65mWL16Na666iryoedqFGztq/pgGsevvvoKH374IT788EPMnz8f3333XaVPKKRSKfTo0QPTp0/H8OHDyTpyxpXibJgWZ05ODnr27ImhQ4eidm31NxH36tULBxxwgFJ2nCOPPBKHH364Uk6rVq0wcOBAdOjQoYoM3w1PXRPpdBqrVq0KJjuVSqFly5a48cYbsWzZMlxxxRXKcmVlZViwYIFSHy6uB2p1JDgoDqXtui1I5ya5dMGnSRcqLoG77ZrKudYR6iDVObU2Z9dlTH3mQefwqRx0anIhhPMRt2tUR9ukk2mfUNa5ai+GPuepwRc3GaWqq9IxLttU1ifxG11TpnGmEA0qXXWhtmnrs2rdqtasq52kBqy2+yESqZxkB2eNcnwRKqrknKlNky9NOSNUSQ+K3Y+vL2pyhBJcxhM2FPvt6jdHy6l8VNf4KoSt0F2nxE4c2Xv27MHgwYOxZcsWZ5kmduzYgdNPP135gn7VGU49G3R7g/tYCgXVWjRdU+lVHXBsX7S8znbofCzOeswxVbBlZLiHCOVgiGYOKfzud7+r8rLN7du349JLL1V+NWzcGJiMICXjZmr/q6++UsrTjWMqlcKYMWNwyimn4JRTTsGJJ56Iww8/HF26dMHEiRMr1WvQoAEef/xxNGnSRNtHm1E2GXOVYTNtrsyc5efn4+KLL8af//xn9OzZU/tVpyeddBJOPfXUSkkOlT6tW7fGqaeeivbt2yvlNG3aFMOHD8ett96KU089FbVq1WKtnyhxQ2Ybs+i8Zb4GmNOWSvbhhx+OW265BW+++Sbuu+8+5Ofna2Xs27cP8+bNI7epwrRWuMmD6kAX7NmMJ8XBtjlIFCdZJzsqI0Q7XIdPJYsTnHOCWZssanBpqkNxZl2Cbq6NpIwF1z75HvS2c5fqPEWvR9d0dNx068FlnKJlOWNGnQOOHFvw4No/1ZhH58QnuIjK5fg28Xa5NslW3jaGFL9LJccWsOvK6vT0sakUTH5g/DonwKHqrbInJvnUxE60DVsZrkxTwG1qT6cfd99S15RpHcUDOFt9Gy5nDvf8camnkpFOp7Fy5UoMGzbM+AlvF8rKynDOOefg+++/d16PNqJ2mfJYimvSSVcnxHmQNKaEIXdd+yTYUqlU1UdUOAGeKtNiuk+FctClUilceeWVeOCBByoF0Xv37sXIkSMxb948owOq+t80kCpdTO2r3rtBcRpVY/bNN9/gyiuvxFNPPVWp3sEHH4wbb7yR3I6tHNfpiZevX78+fvvb3+K2225D//79tZ/eAIAmTZrguuuuw7Bhw9CkSRNl4unQQw/FpZdeigEDBmiNSCqVQvPmzXHuuefi1ltvxfDhw5GTk8OaS92aVRF1AjJly8vLMX/+fO27QGw6ZPpw/fXX46WXXsL999+PY489Frm5uUYZ69atw+rVqyvJ8zEocXTrQxXcVAemINvlYOE6OzYHKqqHSQbXGY/2m9NPV6ffVJYTyJnGKG5buLY4rhtlzFT1KNe4+lBl6hxJ1UFP2ec+12w6ZfRyDQJtPoFPQodS1sdR1CWcXAIBn8SPj09FDaY4e0V3z6anKlGmqkeVQ9FRByUoNrVBSeSoyNg8atBtmhfqWaDyNUMGUNx1oCqj881stprSlu4M8z0j4/pxkzjUdmx1onYq7meEsqVU2xGX8dFHH+Haa68l60Dhd7/7HWbPnq29z/XRTPpT37nhMo8+CSXqmZwkprXve75RrkXXeO3MBarDqjIyqo1F3eAqZeNyVQbtnHPOweOPP468vLyKa6Wlpfj973+Pl156iSRf97OprxmGDx/u1H5GXlS+Sj/VvTvvvBOXX345CgoKKq4NGDAAd911F6k/NlyMXtQ5KSwsxK9//Wu0bNmSJOO4447DjTfeiC5dumDOnDn4/vvvsW/fPuTl5eGwww7DwIEDMWjQILRt29Yqq2HDhujbty927NiBt956C8XFxeSgSXdY6gIv1RjPmzcPW7duxUEHHWTUM5MMy9TLz8/Hddddh0svvRSdOnUyfmIjzpIlS1BUVGTsS0hH33VPJ4XJZnECZk5bXHlcu2orZ3KEOfpw6lMSEDZ5pgDLtmZN54nJXqpkmmwulfgcuIypzeZw9218Teh+Nu0VVYBg6pvPvjK1pdIz2r8Q+9mGac1RzhGufpSkHtW262RRAsN4WW4bKnzPIJc94esLUdqgQG3b5G+o2jfZU+5aos6xbxKEsncpa5zSN9ezzSbfVFd1HkTlceMi13VrGgOujbHV58xlnIkTJ+K4447DDTfcYCxH4cUXX8Sjjz4KgPfHFJOeuuucF4rq2qbGIy5+SbbOSJMOnHI620Xx6031Afyc4HA5xFwWtosBV8nr168fnn32WdStW7dSmdGjR2PcuHHGtjlOpE5HavvU8aNMNgBs3rwZK1asQOfOnSuuHXroocr+JLG4bfO3d+9eLF++nJzgAIBjjjkGhx9+OHr27IlVq1ahpKQEeXl5aNOmDTp27IhGjRqRZe3atQurVq1CWVmZ0YiZ+mDaYKbft23bhmeeeabK40pRateujfPOOw9fffUVysrKMHToUFx33XU45phjWImNDOPHj694wWqo+XYJ9vYHVIeHziHzNf5JHyCUNUk5KE1Bqc2hjrfJSYKb4AReKnwDF595i9tZV8fYpAtnbVGCcJfxoujFSaDY4NYJ0R/bvaSCDx0hZJn8Gm5yyDbGXJvK8f3iv9v6o6tLGQ/f6zY4dppqCzhBgKpt1TlJkcOZX9W1JM5MW99M9TjybXZUdZ8yftwYi2LPXc8hzplBmVvKmr/pppvQrVs39O7dm6VzlH/+85/a9x3GcfEzonCTG7q9ytFDV8c1Pg9JfH9Q95/N/+S0FZcbpcozBKZgWyWAg6vBjP58/PHH46WXXqoS+D7wwAP4y1/+Qmqb45hFD1EA6N69u7b9Bx98kNS/dDqN8847D3369Kl0/cknn7S+YXjv3r2Vfs/Nzc3aYrY5EVu3bsXYsWNx3HHHsbKb9evXR8+ePb10Kysrw5IlS/DKK69UGiObsfYNUqK88MILuOGGG9CgQQPl/ZycHIwaNQqjRo1ybiPDZ599hrfffpt8AOuw/VWhujLBNijBXWZcqH3kGFzOmHDHkLMmTc6HyZFVBQimMeI65zoojqCuj5QDzka8z9H/bTpH9aDUo+qiG2vbeqSsVZe9ze2XTg/dPLnaJxdbzRlDjhyX/e+TkKPUM41z3CaazgpOwoqbMNH9bkO19ylOtE5Xrl232T9ufZMu1AQG9cw3nRGU+zb5OrhzHqINnW3mrHnVNdW5Y/M/KPueMibRcr7nX1Quxa7q1gDlzKLY3dLSUgwbNgwLFixAu3bt2P1YtWoVzjrrLNbj4S6kUin06tULM2bMYMU2trXAjU9Ma8rXH3HBxd5Fy3DOGmq5KBUJDtumoRhBV1RZKtVm6NChA1577TU0a9asUv3HHnsMd9xxB7kt08Giuh6q/Wg/u3btil//+teV7i9evLhSgkM1tgcffHCl37dt2xZkHjiZQt0YlpSU4P3338dbb72F888/30sfLmvXrsXbb7+NRYsWacuYxkgX/HEO+RUrVmDmzJk499xzHXpAp7S01JhMozix8bKqejpZ0fai6yZb2OaFG4y4Oh9UQjkiqt9V13T2S1WGskYy902yufWoNssnONTBPcviYxTdMyadXXXR3VPt1czPLsGDTzChG8NoW777ymR3ODpznCiTHBu2PeLSb581Tzm7fPeUyY6ECJJNCQ2dLN26CWU/qPPj019uOcpY+BCqnxRfxGafuYmt+DXqPrAFZDZdXNYIpZ+c+aQmcyhQ6rjI3bJlCwYNGoRPP/0U9evXJ9crLi7GGWecga1btwLgrRFuYqFnz57s5IZKnqkdjr2m9jMbUP1xyt6mtmGqF71e8XZMVWXV7/FAWFfOpGi0DDUb2bJlS0yePBlt2rSpdP35559XvmhTp4epnyY9uO3r2s78++6776rcHz58eJWxiXLBBRdUSXCo5OiIj71Ot3gZqmOcTqexe/duPPLII/jpp5/IevmyZ88eLFiwAJMmTap4ZCOqkwpbHzPXdIkf1Tju27cPo0ePrnjxZ1LMnz8fc+bMqaJTFK5DbjqM40Y47jxmG9t6dDX+2TwoqHaSsvdstpvStk2GzjbYiNeLrjPVmaKqb3NGqDqpykXHWXc/qktUB+oZo9PF1p7qenyvUhyDuO66tkznA4XoGeKCas2p+k3RUTdvprIcX0a3h6jr2gT1zHLFNh66/UVZH5SgWyeboouqrq6Oa4LBBlWmyl+wJepCnkGU4DteniJT1QZl71Dmg3LGUJMbnP1C3fu6pEe0Dse2U5MlHHQ+q+latK7Peaq6TrGj33zzDc4//3zW3rrwwguxdOlS5Z6yrW+OnXJ954YK6tlg2gdRGRwbGxqdb6GKm0wJG9fEGcW2Kb/D0+RYm4KJzO82h1X3u07hxo0bY8qUKejUqVOl61OmTMGVV15pdAhsk/urX/0KX375JVatWoVp06ahQ4cOVWQUFhZq27/iiiucFtnrr7+OHTt2VLo2YMAAPPTQQxW/R+WefPLJePjhh6vIfeedd4wOSRRbkKILqjiUl5djwYIFeOGFF1BeXl5xbeXKlZg1axZeeeUV/Pjjj1USETY2btyIWbNmYdKkSZg/fz42b95coecPP/yAN954A8uXLycf0qY1Q1mTunH87rvv8Nhjj1G65MT69etx8803V2StqfgaOVVgVF0JDmq71ODPRTYXSkKNc9/Ujs2BiTtlKjupC4JcxlRXL36mUOqqylKcYsoBm5Hj4yBS4SYCOAGJ6dxTJZts7dgIHXjHr1HXoG1NcG256zyrfCWO02+Ty5Gnc0I5zrEqoWZKlNnkqPTijHXcT7EF01TZoRMiKjti05l6nRLIm2yG6gyn+j2q301+vU5Hk58aL+OyF13PKlsZ3Rmhm2NTH1RyOH3WJZy49aI6uCTwdNcz+lDKzpgxg/xJ/LvvvhtvvvmmUY9M+zZ9TXVCJDei60UV7FP3L9VHs8kJhS2Wt409J5HGPS8z5as8ohJXRrVhTAmQ+M+mOtT7r7zyCo4//vhK18rLy3HIIYdgwYIFWplxvv76a1x66aUV7fTu3Rtjx46t+CaUVq1aoX79+ujXr1+lsXj11Ve17X/66aes9i+55BIAP78Qc+LEiVXex3DzzTdj0KBBmDNnDtauXYv69euja9eu6NevX5UXUS5duhR///vfq7SjMrQuh5eqrupafO2UlZXh8ccfxzHHHIOCggIsX74cn3/+ORYsWIAff/wRw4cPx8knn4yePXuiWbNmqFWrlnrA8PM7R7788kvMnDkT77zzDtavX4/OnTvj+OOPR5cuXdC0aVN89NFHeOedd4x9i+ppKqMbs2hgaHKcSktL8dJLL6Fv374YOHBgpa8Q9qW0tBRPPfUUPv3004rkkQrVAWkKZigJH5XxogSWSUDRmyMng688Ha5yXfSj3qc6/1y9XQNk1b7kjBu3H65Bvm3/qwIv294KGYzF24/LN42pz9yp2uKUMfXN1B9Tnzj94QbYXBtkCwC58uP3deNKDUg5fYnXpwSSnP7b6lCcZ936CL3+TTqb7BlnvYa00Sr7z5l3it2h6Ei1eUmcx5R2XOYpg2kdUHxxjnzXfWXzc0NhO/viOj3wwAPo2rUrLrjgAq3MN998E/fccw/ZTlJj2LjOoZIbqjninPnxOePOeXXg46tS41VTvcz/FQkOinGlBIi2BrmkUimcdNJJVa7n5OTguOOOY8mKB9J9+/at9DWvwM8vEY3rGrr9zLjccccdOO6449CrV69K5Tp16lTl0yJxNm7ciOuvvx779u2ztssde+68qdbIypUrceedd6Ju3bpYuHAhdu7cWRGUP/7445g+fTruu+8+DBkyxPjc3fr16/Hss8/ixRdfxK5duwD8/K6LGTNmoFWrVjjkkEOwZs0abNy4sYruuj5RrtuMiGkDr1mzBqNGjcKkSZNw1FFHafvGoby8HNOmTcOjjz6KkpISY1muATSNC9eRzyYu61pXz6V/LoEORzbACyRs8lzqc4NkmyzAfsBTzxmdTj6HK7UexaEKGZhQ61KdZ8pftjjjyAlSbEFVNIBV9YcajNgSTDpsa0mlE2WsXJIh0bFy+cMSB12g42sbOXVNe4cq0+Qg29Yel/h+D+V/qO5T9aYmEqN9oOJqb7lt+sin9F8V2FP00tWPErexlD3KCcKTODdCyOYkS0xjcvnll+OII47AMcccU6XeokWLcOGFFxrlRdvX3bP1M9RjKSHsjGkfUP6gUB0kuUYBetI8J1PYJszViKlkZ65n/sXbsSntQ1TeypUrq9zfsGFDJX2SINP/Xbt24Ywzuw5yDwAAIABJREFUzsDLL7/MemTjP//5D4YPH44PPvhAWyauO2WOqVCMSSqVwieffIK5c+di+/btleqUl5djxYoV+PLLLyuSFjpWr16N5cuXVylXUlKC77//HvPmzcPy5csr2oyuOYoTr3L4dX2Lltet7cy95cuX46abbsKKFSuM/aMya9Ys/Pa3v2U9mhLfW6b7tvoqY5JOp42fJAmNb3tRJ1R1jwo3+UA12PE6Ljr56KCSpQoofGSZHLy4fFOf4rKiZ4rLmcG19a7z7bv2dDJ0e93kJKvmI3oGu65bHdRx4fwhJaqv7x5S6Wmy86o6tjUbRVdWN6auvpBufEz3om1Sx0BV33YGUerF71FluN436ay6p1svFJvG0ZXb/1C+s8vZ4us7U8ZU1w6l/9H5iCeodFCTwqoylDEMHftQ9l68Xeq8UfYn1d7F7+/duxeDBw+u+KNlho0bN2LQoEEoLi4m6+Niu0K+c0MH10fQ1TFdq67kBuC+/6lxim38MnVybIUz9ykHuK6uafFFZbo6JK48//zzmDZtWsXv27dvx5gxYyrpmESSI+p07tq1CyNGjMCQIUMwbdo0bcBfVlaGL774An/4wx/QvXt3fPTRR6R2MoQcV1PSKt6eaQxXr16tNFZRNm/ejG3btinbjjsY0axlPNmh0zuuL+eeyYCn02nMmjUL119/PVauXOk8/uXl5Zg3bx6uvvrqSnI4zqLLfcpeLCsrw9atW62fKAlBOp3Gnj17sH37dm0Zl7k2Of+6NuJzEE3WutoL3/3JcdpD6UI5jKh7J5qgyMjh2l+K08nRM4Tt93Fadc68zdFxTUZlynMdU10Z2x7UnU8uOsfrmRI+XDjOKGfvUPcGtW0dFHm2OXdxyOP1ODbKZ5/oypiSYVFMOnPGUnVWu46j6r7q/EkCamClu6/TjaOzLmgLcW5S1yhl7nyCfNcYyybPJjuJhK6rnc3UW7duHQYPHox169ZV/D5kyJCK31V623Sl8thjjyWa3IjCOVtttovryyaJzZ/yTeLY2s7UqW0pW6GMymhzM8rcexkaNmyo1MWmK4Vhw4bhhBNOQPPmzTF//nysW7euSn+j7XNQ6aLTb8aMGZgxYwby8vIwYMAAHH744WjQoAGKi4uxfv16zJkzB2vWrCG3RW03mr3W1Y1jkkMtD/z8KMeePXuMbW3atKlSUEvVTXUg+h6GtrWlauv999/H6aefjtdeew1dunRhtVdSUoI5c+bg4osvxqZNmyrpQOmLad9y94lKbmlpKdasWYP//Oc/OPbYY51kUdm5cyc++eQTbN68WakL4PfXLiqqNkzG3DTW8evx5Inunumarg3uejHdN8lUrbPodRMqR4tj63XlqetdN2fcuklBnWvTNeq+pwZluj1ga9cloehaRmcXdLaQE2i7jG0ouOOiWs82u0SxXa7+mM1nocrS2RmTjlwfxgdb/6P2NN6PeB8ofdLtvWyvz7hepnumdWaTES3rMq+u40LdA9H73HPQ1r6pvKpfru3rbALH56f4QtF7CxYsQJs2bdClSxcsXryY/Yc0zrxGyx5xxBGsdlx0MvlQRUVFyj1rO2Ntc1JeXh7snYAun6R28c8BP7tcmyLAZZGENqZUR90lYPnkk0+07VGv23Qx6R+VuW/fPrz11lvKMiYdbAcY9zoXlwPkxx9/xOrVq9GsWTPlxss8hhIPam1thlx7VOdAVy6dTuPrr7/GkCFDcOutt+K8887DgQceaGyzvLwcy5cvx7hx4/DEE09UMuyUNUkJQH0chui1DRs24OGHH8a9997L+g5zKuXl5SguLsaCBQtw3333kfRTwbVxvmvIFlSp2rQdfNSAgOKAqGx1SCctXoeboOGcJRT9Vc6CaTxVP3OTA3GdOMFeXAcKtr1qk8lx2OP1MnV0cxEfB4oOFD18zmjTPnSBo4tvQEUpRznzbY60SQYlecbZkzZM5annn0rPuK0xyXTZI64JOMrvnDo+Zz61jktCm+O3ZtvHNZ1DNrnU5LKrr+FiG226cRMZJpmm67axzNwvLS3F559/Tmonjq1/qrKpVAp33XUX/vznP2ftEZWoTsXFxfjmm2+U4x7fWxy/pLy8HAsXLkTXrl2Rm5vrpXtpaSmWLl1aEZeY9oiLHxf/2bQubaQAWEuGCCTiC4wiM+4ImQ4s1X3XAaWSVGbc95Cx3aOOPdU4A3wDmEqlkJOTg0svvRRdunSp2HTRMjt37sT06dMxf/58lJeXs8cl9Lxw5KrK1K5dGwMGDMDIkSNx6qmnol69epXWeHl5OTZu3IjJkyfj0UcfrWToQuoWWlZ+fj6OO+44dOvWjVXPtn9SqRT27t2LFStW4JNPPrG+r4Xanm+ZaNkoXPvG0YN6cFCdDJ09drHTujaSIPT6BtxsF9XWUuRRdfU5q0KjWk9Asp9gMbVPvacrD7jrzvEzQsNdFz5lkjxPAbdk1f7iE1Db4dgHgPdHnHgdrt9H9fFCBTEuOlLZX9rJXAPCJMSS1Jujo0qOi6+QxP6lxqAhiPqA3PhTJy+J2C+VSuGcc87BRRddhBYtWlTxXamk02ls2LABU6dOxYsvvljl3ZEhxjaU75xKpaomOHyEhzhgk1wUIQYOSMaJczmMsqVLUu0nZayTqBfKeczJyUFhYSFOOOEEnHXWWejXrx/atm2Lzz77rOKrcJcsWYKioiIAPKOpmhMfo05JQFAMazadZVMb1RkYJuWIZ+tAycYec5Xn6ywl4fjYdFXdt5W3teMT0Pg64dy2qO262jRXuxMikcSdx5AOXXX4Vj7tuvoaqnlKav9y9K+OM0alJ9XO6MYR4H9CwXZdV8YnQUKV6yLLRuj6IeyN6/moqxdFN9fRe6F9apdypnUZ1TUJsmHnswl1D/n6DyGptB9A+AQHR6Dqd1/ZQJjn0kyOYIbqPqyibcf1yVyvroDR1BZl3F3kcupkK9ijygHMH6vNz89H06ZN0ahRI2zcuBGbN29mfZuOrX3VGg/VN4rDFLKdbDqSvuuVesi5jhvVofEh1HoJHbTb5FenzQ5FTetT0uc/JwkT2n5nsCVYQu3DpAK/UHVqIiGTIaHsEXfP7E/Bjc/YZXCxF0n5GTo9Qs8JRX9qwOjTfx+9Q5ZPak0nYYuzUS+0nFB+lmvSjKILN87ltlMLwJ8yN+KHOkcgp66urEv7mXrc9kPrQGkzSflcfMZalxzS/c5NTvnqmDSh9CotLcXOnTuxceNG7N69u9I+irYRoj2XfWqSwylPaVNVhnotep3av1Djm+mfTYbpvu1wif8c/V+1F6n7yNUmUeYlMyacBK2uTHx8bWOpkseBMn66a0mfH6Z7vus4FC57MCShxiOeWHHVw6eO69oNpbPNvlHWZVSO6T5Xvks53zpJyXQ9H0wy9ge74Dt/Sege6rqPDknrZDqzOH4VR66pvK2ez1pN4uzi+rnR+qb4SNeeDy5j5+qTU8u6+O4+7WfKx+esIsFhqkRp0MWhDHkYhDDmXHmhF1RNwWf8fR04qh6q677GxmUvhIATsCa5zihGn7P3fYJQinzbz75yXcvp5sm2h5JwYHWykyxr65+PU2dLqPjam6QcMJ+z0PUv0tk4k0xrlpMop8hW3Xf1S+LJYBeb6+O4ZeTqxoi7FqvT/8i0bftrePR/XRkXR1pXxudTCPu7P0ftH3efhQpGuJj2Mncf+CYu4/JMv5uuc9cy5yzl6uID185y+0GRk639yN3/vvYiWp+7PlzPPs69JH0bVV3buRe/VyuVSv3JpoivYcm2A54kPk6Gqr7uHqdeSPZ3p8nVwaH8hdxVFxfnnKNHUkEVp67NMVA55LoyvqjGPcQcuNYP5fS6BmQmneK/+ziGnOuh7vsS72+ov8pz5jypPlKCmFBth7ZP8Xq6eXKVlxQcJ890nbIvfBJWSQQxJrk++4B6brh8FJpy9nP8WO6nUbPpI0dlhfzof7QvPsniUIGtrm51xQgu5z9lzat+jl5Lap5t13zkc3U26aRbl6p62fZTbGOZjbG2jYmLzCRIclysn+BIGhfnQHctCScsLmN/eGbVZbOFcEJd2/Zt0xdfxy/kweWLyxoPFYAngW19JXkQ+CZcTEFZRnbIvce9Hy2zv+/bJOpm5sQnkVOdCQJbgGx71CdJXNZ1fD+YHNTo/RBtc9G1wT1LQpVRlaOuKV8dovOjsyc+No7ymJ2pfnURck/vLyS5t1RrJuSnKXRtmMqY+hvi3A4Vk5jGzlU3V0z9o97zbVd3P+n+VTeq89NVjsu1JMeD6q9x9jgpwRF60USvhXh5jW1BUg94lePFqeti2EIGP0kFUr4yfJwtzmbOhjHiGlFfA+Hq8HH0rA4jrlsTIYP2pA47zl6nyg5RLl6eai9DOpdJrCXqHor3y+clbNkmGwG7qp39zYGzoZrX/e0sdIWbwDA5g6Gd32ibviQZ6Kh8uBAysxX069oMtZ5dfRdXG+yK65lnu+4aQ3Da5MjwrRsi2NW1bZt/ylgmCWf8fdaTj79PuW+yWb62h3um2K672qVojOwSo1B0VV2rkuBQNaoT5mMIqIclZ0CjMrPtqIQ4/KmbIylHI8kxMxnEaNs2x43SDqcM13i5fkTTtiF1c1FdDrdtf3ODiuoIrDhOT+Z/k54uOodwlqj1bHuMIy/0fNnseHUGlhxc171tXYVIxlDHN+mxT2Lt7A96uMoI2f+4rbJ9E4OLDdedv67jybWhIRxgXfs+Mrh7n6KPS0AUQgdXkvTLXOtx7Sc1hnBpk9vPUGvT5S/ftnIm/8mUZKb4Xa5nVeZaqPHX6RnCz3edD4pvkE27yD1DXHVxsfc2m6xMcLi+r4BzAMYPsWjnOBuLo59P+Ww6aZRxro5DzWd8kwq84mWoz/JSjKjtZ1s71P3iMjYq+SHmyQXTgZO5vz882kXBdQwpMkMSas44bSTpbFMdHtf2q3M+OU5zdRFq3VOdbZsepp999DK1R7mWVKCmWvNxu0rpg2n9Z8NRVbVZ3bbfdFaqyqp+5/bDNTj0kR29H8pfpeyP6rRb8fZDB0ghyJY8TpDooxPHd/ZtyxXOvGZLP+4ZQKljk2ez+dmMgasDZYLDF+pB6nP4ZTvAD5lYobYZ/53iMFA2sW+iwlROt0ldnF7VGFTnR+JUJHmgJmHwbD/byoUKRG36UcpQD4xs2rSQcnXlKfsplKPjGhhwcHX6XXUJMZeugaRJHicJki2bkSTZPsND6xAqMDXNvSrAdlmjtjZcg3cXG5utQEOnJ2csk1yj2Vj/Lmc01xaFxtcGu9axna1JzxfFt6Ge/TY5HF1ClU8qwM+mDQ+Nyr671A9VJ7Q8Tn3fM0R1jfUODoqxDD1R1ODLVb6LrKTasgWQlGuUtk1fPceF217SVLeD73ugUIwPJYhKos+6uTSNuW7/ZvtgMTnl+5sTa1sDlG/OCJWQrc554tyLl3EJJin1dfpkK1jZ3z8JkgQqexcqSPax19SPMbvqlMTZGSrgSTIITYp4YsN3fF3WoO+5zbWBnHPAxXfy9VdDk5TfE6Idl3Pd1UeJz4vJZ1StA+63BbnoRSnLfVTE5NtR/GaVrFBw27fJMv2uukcdi/3FZoc4q7xfMpq0scpGcJxpJ0RfOEGgr+wkHWzuwWYLaKntuW66UGvUpWwIQ5HUXIbWjdu26RnxkG1lg/ihEHUc9me9M3AcNU5QSZFFxTaWNp1Ua4tjg0J9hV0IfGxnqECWI8/VGee2k2R9lQzqeqSMncu+4sh2wSab6h/tDw4z1RZH97pqDJMO3FTXXP1dk85J+4XZ8iMockLEC7r1k+0YyLc9H3+Z2galjq//76pHPJGZkePzh59Q9i20nfRd90mcmUm2RZWZSqUqJzhCBHe6YJfjJHAChiQHNtoPXydHJ9cmz1TX91EVW1sceb7fj84NSkxz4nJI6eRwoc4Ppb5KD+4epb5pP8TBYtPFp26Ife4bvIX4iHe2AxXf9eiiT7wvrsnjJGw7x4lJImAz7e9sBIhJBZvx9UXZszYb7qtPSHmcNpMKwDh2UFd/f8c2by62SCWDkmCn+BAuAVw2vokmKZtoK1Nda4wyrrb5VNkwqmxKWyq5IeGcXRz/2CWO45bhjAnXH8z4H7rH0nRjYboeYu6yactd/R7OOFPa8H3/kE6mbk4rEhzUTWwyCPEGuW8jttVNclJdZdr6yS3vq49reZvhCvHtNBwDmoSDSnGokwiqTHVthjR+jRNIh9xDoQ7jkAcEt91Qn9JSyQ5Rr7p18wk2KYGJi2NSXVR3+z56UOypqQ6lPBfO2tIFGtkgm4FhdQWDKrLhbNvOueracy4OvUkG5XrINpKuy5GX1Jq2Bea+9oIb/1ACwmjZbNuw6vo2SQ62mCNJOdXhf4asz7FZXLta3WsmZPukR1RMjYdwjLiLkOss6cpyXibkegj6BnSuG93U71CGxaUuxeEOFYxS23KRF8oRS2oukpTl2gY36aJL8uwvh9b+poNtHHW2mjPGtnYzdW1fXxmC0E5DCPm+wV4o+fE6oR4JcznPdAHI/rBfdXDsctJBneqaah6SWq9JzxPnnA7hn8THjPOXf87c+/oJoX0/3zZCyUnax3RtJ+nyHHk+8QLlmwRNbfti26uu9jNE3OfSLrW8qd/Z8lWi8xtyn/nOUfyei+/FqZP5uXbbtm2NlQRBEARBEARBEARBEPZ3cqpbAUEQBEEQBEEQBEEQBF8kwSEIgiAIgiAIgiAIQo1HEhyCIAiCIAiCIAiCINR4JMEhCIIgCIIgCIIgCEKNRxIcgiAIgiAIgiAIgiDUeCTBIQiCIAiCIAiCIAhCjUcSHIIgCIIgCIIgCIIg1HgkwSEIgiAIgiAIgiAIQo1HEhyCIAiCIAiCIAiCINR4JMEhCIIgCIIgCIIgCEKNRxIcgiAIgiAIgiAIgiDUeCTBIQiCIAiCIAiCIAhCjUcSHIIgCIIgCIIgCIIg1HgkwSEIgiAIgiAIgiAIQo1HEhyCIAiCIAiCIAiCINR4JMEhCIIgCIIgCIIgCEKNRxIcgiAIgiAIgiAIgiDUeCTBIQiCIAiCIAiCIAhCjUcSHIIgCIIgCIIgCIIg1HgkwSEIgiAIgiAIgiAIQo1HEhyCIAiCIAiCIAiCINR4JMEhCIIgCIIgCIIgCEKNRxIcgiAIgiAIgiAIgiDUeCTBIQiCIAiCIAiCIAhCjUcSHIIgCIIgCIIgCIIg1HgkwSEIgiAIgiAIgiAIQo1HEhyCIAiCIAiCIAiCINR4JMEhCIIgCIIgCIIgCEKNRxIcgiAIgiAIgiAIgiDUeCTBIQiCIAiCIAiCIAhCjUcSHIIgCIIgCIIgCIIg1HgkwSEIgiAIgiAIgiAIQo1HEhyCIAiCIAiCIAiCINR4JMEhCIIgCIIgCIIgCEKNRxIcgiAIgiAIgiAIgiDUeCTBIQiCIAiCIAiCIAhCjUcSHIIgCIIgCIIgCIIg1HgkwSEIgiAIgiAIgiAIQo1HEhyCIAiCIAiCIAiCINR4JMEhCIIgCIIgCIIgCEKNRxIcgiAIgiAIgiAIgiDUeCTBIQiCIAiCIAiCIAhCjUcSHIIgCIIgCIIgCIIg1HgkwSEIgiAIgiAIgiAIQo1HEhyCIAiCIAiCIAiCINR4JMEhCIIgCIIgCIIgCEKNRxIcgiAIgiAIgiAIgiDUeCTBIQiCIAiCIAiCIAhCjUcSHIIgCIIgCIIgCIIg1HgkwSEIgiAIgiAIgiAIQo1HEhyCIAiCIAiCIAiCINR4JMEhCIIgCIIgCIIgCEKNRxIcgiAIgiAIgiAIgiDUeCTBIQiCIAiCIAiCIAhCjUcSHIIgCIIgCIIgCIIg1HgkwSEIgiAIgiAIgiAIQo2ndnUrUNM57bTTUFhYWOX6zp07MWPGjGrQSBAEQRAEQRAEQRD+3yPVtm3bdHUrUZN588030aVLlyrXV6xYgdNOO60aNBIEQRAEQRAEQRCE//eokZ/gOPLII5Gfn18tbf/www/YunVrtbQtCIIgCIIgCIIgCIKaGpngeOKJJ9CmTZtqafvmm2/G5MmTq6VtQRAEQRAEQRAEQRDUyEtGBUEQBEEQBEEQBEGo8UiCQxAEQRAEQRAEQRCEGo8kOARBEARBEARBEARBqPFIgkMQBEEQBEEQBEEQhBpPjXzJ6NNPP41GjRqRy59//vk45JBDlPfGjRuH4uJisqzFixeTywqCIAiCIAiCIAiCkB1qZILjf/7nf1jlBwwYoE1wTJ48Gd9//30ItQRBEARBEARBEARBqCbkERVBEARBEARBEARBEGo8kuAQBEEQBEEQBEEQBKHGUyMfUampHHLIIRg0aBBatGiBxo0bo7y8HNu3b8eyZcswe/ZsrFmzJmh7Bx98MPr164f27dujadOmqF27Nnbu3IktW7Zg9erVePfdd7Fhw4agbQJAmzZt0KdPH7Rt2xZNmjRBXl4eSkpKsGPHDqxevRqffPIJFi5c6CS7efPmKCgoqHJ99+7dlfrSrl07nHXWWWjZsiUaNGiA7du3Y+7cuVi0aJGyPgBs27YNW7duJety0EEHoV69ekFkCYIgCIIgCIIgCH5IgiML9O7dG6NGjUK3bt1Qu7Z6yEePHo158+bh73//u3Pwn2HAgAG44oor0L17d+Tm5mrLjR49GkuWLME//vEPTJkyxatNALjsssvwi1/8Ap07d0ZOjvnDQZkEy/jx41lJlr/+9a/o2bNnlevz5s3DlVdeicaNG+O+++5Dv379qvT9wAMPxMknn4yLLrpIKXvGjBkYOXIkWZdnnnkGnTt3Vt77zW9+g7feeossSxAEQRAEQRAEQfBDHlFJmHvvvRfPPfccunfvrk1uAEDt2rXRv39/vPDCC7jiiiuc2mrevDkmTJiAJ598Ej169DAmNwAgNzcX3bp1w9/+9jf84x//QNu2bZ3a7d69O6ZPn44//elPOOqoo6zJDQBo1aoVrrrqKrzzzju45JJLnNqNUlBQgHbt2uH111/H6aefrux7eXk5pk6dinQ6re0HldatW6Njx47Kexs2bJDkhiAIgiAIgiAIQpaRBEeCPP744xgxYgRq1apFrlO3bl3ccccdGDZsGKutrl274tVXX0X//v2RSqW4qqJXr16YMGGC9ttmdAwbNgzPPvssOnXqxG4TAAoLCzFmzBiMGTPGqX6GunXr4r/+679w6KGHasuk02ksWLAA3333nfJ+06ZNMWDAAFJ7gwcP1s7rP//5T5IMQRAEQRAEQRAEIRyS4EiItm3bYtCgQU51a9WqhbvuuguNGjUile/YsSPGjx+P1q1bO7WXoV27dnjqqaeQn59PKn/aaafh/vvvR/369b3aTaVSuPTSS3HnnXc6yzjyyCNxzDHHGMuUl5cD+PlxFh3UBIfqMZkM8ukNQRAEQRAEQRCE7CMJjoSIf4qirKwMGzZswNdff43ly5ejuLjYWL+wsBCXX365tZ38/Hw89NBDOPDAA7VlioqKsHjxYsyfPx9Lly5FUVGRtmyHDh3w+9//3tpu06ZN8ac//Un7wk4AKC4uxrfffosFCxZg6dKl1pduXn755TjzzDOtbaugfEom82jK5MmTUVZWpixzwgknWOXk5+ejW7duyntr1qzB7NmzrTIEQRAEQRAEQRCEsMhLRhOmpKQEU6ZMwT/+8Q8sWbKk4np+fj4uvfRSXH/99TjggAOUdfv3749HH33UKP/OO+9Ely5dlPeKiorw3HPPYfz48di5c2fF9QYNGuCXv/wlrrnmGmWCYsSIEZg0aRK+/vprbbtjxoxBixYtlPeKi4sxceJEPP/885VeIJqbm4vhw4fjxhtvRPPmzavUq1WrFkaPHo0FCxZg06ZN2rYplJaWYuPGjdiyZQtSqRQaNmxYMQZff/01lixZgqOPPrpKvUMOOQTHHnus8UWvZ5xxhvZTKx9++KGX3oIgCIIgCIIgCIIbkuBIkF27duGPf/wjpk+fXuXenj17MGHCBHzzzTeYMGGC8qWY7dq1Q25uLkpKSpTy27Rpg3POOUd5b8+ePbjpppvw3nvvVbm3c+dOPPLII1izZg0efPDBKp82KSgowIgRI3DXXXcpZR977LE4/fTTlfeKi4sxcuRI5WMgJSUlePXVV/HBBx/gxRdfVL7UtHnz5rjmmmvwwAMPKOXb2L17N1566SW88sor+P7777XlZs+erUxwAMCgQYOMCY4+ffpo702bNo2urCAIgiAIgiAIghAMeUQlQR555BFlciPKBx98gH//+9/Ke/Xq1dM+CgEAV199tfYRkaefflqZ3Ijy2muvaV+Iedppp2nrXXnlldpvShk3bpzxHRcAsG7dOtx2223Yt2+f8v7ZZ5+NunXrGmWo2LRpU0VyxJTcAIBJkyZp2z/ppJOMdXXftrJixQrtXAqCIAiCIAiCIAjJIgmOhPjxxx/x7LPPksp+/vnn2numd2sMHDhQeX39+vV44oknSG2/8soryuvNmzdXflKhQYMG6Nevn7LOqlWrMGHCBFK7n376qTYBc+CBB2o/mWLir3/9Kz7++GNS2TVr1uCzzz5T3uvQoQPatWunvHf88cejZcuWynsffPABTVFBEARBEARBEAQhOJLgSAjdSyxV/PTTT9p7hYWFyuvHHnusNvkxa9Ys7Nmzh9T222+/Xen9HFFU30rSt29f7adG3nnnHe3jNCpefvll7T3Kyz6jbNy4Ef/7v//LqjNr1izl9Vq1amHIkCHKe7qkUjqdxtSpU1ntC4IgCIIgCIIgCOGQBMd+gOlbTXRf2dq7d29tHe4nCVatWqW83rFjxyrXdI9nAD8nSzj861//wpo1a5T3jjrqKJaszDekcJg0aRJ2796tvNerVy/l9RNPPFF5fdmyZfjyyy/ZOgiCIAiCIAiCIAhhkJeM7ufEXwCa4bDDDlNeT6fTaN68OS666CJyG7qvWG3atGmVa7pHN7Zt2+YU4C9fvlz5yMfBBx/MlsVl+/bt+Pjjj9G/f/8mGXu+AAAgAElEQVQq944++mg0bdq00re5tGzZUpn0AYA5c+YkpqcgCIIgCIIgCIJgRxIcNZSGDRsqr6dSKYwZMyZIG6oXferaXbt2rVMbuk+P1KlTBwcffDDWrVvnJJfKzJkzlQmOOnXqYMiQIZg4cWLFtcGDB6N27apbpqysDFOmTElSTUEQBEEQBEEQBMGCPKJSQ2nQoEHibagSHPXr11eWNT1mY0L3/g/g56/BTZo33ngDW7ZsUd475ZRTKv3es2dPZbklS5bg22+/Da6bIAiCIAiCIAiCQEcSHDUU3Ys+Q6L6tILunSC6r1y1YXoZajb6WFJSov2q3GOPPbaiv/n5+cqXrgLyeIogCIIgCIIgCML+gCQ4aiguL9UMQXFxsfJ6Xl6ekzxdwgT4+R0Z2WD69OnK6w0bNsQZZ5wB4OdvT1F9aqakpEQeTxEEQRAEQRAEQdgPkHdw1FB03/5RVFSEmTNnBmlj69at5HZVj7NQMD1qk/T7NzK89957WLt2LVq0aFHlXt++fTF16lT06dNHWXfRokVYuXJl0ioKgiAIgiAIgiAIFiTBUUPZsWOH8npubi7uuOMO46MfSbTr+q0nrVq1Ul4vKSnJWoIDAObNm6f85pnjjz8egP7rceXxFEEQBEEQBEEQhP0DeUSlhvLTTz8pr+fm5mo/bRCC5cuXK68XFhaiS5cubHnt27dXXs/2pyLeeOMN5fXmzZvjkksuQevWravc27NnDyZPnpy0aoIgCIIgCIIgCAIBSXDUUObPn6+9l3lvRBJ8+umn2nuDBw9myerRowdatmypvLd06VKWLF/mz5+P7777TnnvhhtuUF7/7LPPsGHDhiTVEgRBEARBEARBEIhIgqOG8v7772tf+DlgwAC0bduWLfOII44wvvQTAObOnav9StgzzzwTubm55PZUj4RkWLBgAVlOKObOnau8ftBBBymvv//++wlqIwiCIAiCIAiCIHCQBEcNpaioCB999JHyXt26dXHvvfey5B155JGYOHEinn76aeOLP3fu3Kl978QhhxyCa6+9ltRe9+7dMXDgQOW9DRs24PXXXyfJCcnkyZNRVlZGKrt7925MnTo1YY0EQRAEQRAEQRAEKpLgqME89dRT2oC8R48eGDduHOkTFWeccQaefvppNG/eHD179sSzzz6LwsJCbfnnnntO2+6vf/1r9O/f39he69at8dBDD2m/Wnb69OmJvSTVxNdff01+NOaTTz7J2tfYCoIgCIIgCIIgCHYkwVGDWbhwofErYc8880y89dZbuPjii5WfyhgyZAieeuopPPbYY5W+BeW4447DxIkTtY9mLFy4EDNmzFDey8/Px7hx43D33XejXbt2le41aNAAV155JV577TUceuihyvrr16/H+PHjtX1KmlmzZpHKvfvuuwlrIgiCIAiCIAiCIHCQr4mt4YwePRqdOnXSJgzat2+Pe+65B3/84x+xfv167N69Gw0aNEDjxo2Nj6K0bt0aBx10kPYlmnfffTeOOeYYtGjRosq9vLw8XH755bjkkkuwbt06bN++HQUFBWjWrBnq1aunbbOsrAz33ntvtb64c9KkSRg5cqT20yUAsG3bNrz55ptZ1EoQBEEQBEEQBEGwIZ/gqOFs3boVt912G7Zu3WosV1BQgLZt26JLly5o06aNMbmxe/du3H777Vi8eLG2zJYtWzB69GjtC0cBoFatWmjVqhU6d+6Mdu3aGZMbAPD888/j7bffNpZJmjVr1mDhwoXGMv/+97+r5REaQRAEQRAEQRAEQY8kOP4vYMGC/4+9u3eRs9wDMPzMzCJpgkYhSLqFdILBj1IEOwurSGwCSkArSStiKv+OFLKCpWgUBW0CEbLqgQhpDBEtFEUxEaKEILo7pzjsEvO1mxOT8TbX1QzM+74zv/rmeZ/nP+PQoUPj22+/veXf+umnn8bLL798w1dfNhw/fny88sort7wXxXw+HysrKze9MertstXpKNd7PQcAAIDFETj+JU6fPj0OHjw4Pvjgg/HHH3/c9PPz+XwcP358PPfcc+PEiRPbfu7DDz8cL7zwwvjiiy9u+j/HGOPcuXPjyJEj4/XXX/+/nr8d3n777XHx4sVrXvv555/H+++/f4cnAgAAYCv24PgX+f7778fhw4fHvn37xosvvjgee+yx8eCDD97wmUuXLo1Tp06NlZWVLVcuXM/p06fHs88+O/bv3z8OHDgwHn300S1Pb/nmm2/Gxx9/PI4ePbrl6zV32oULF8bnn38+nnrqqauunTx5cgETAQAAsJXJ8vLyfNFDcPs8/vjj45FHHhm7du0a991337jnnnvGpUuXxvnz58fZs2fH6urq3x4Ydu3aNZ588smxd+/e8cADD4wdO3aMP//8c/z666/ju+++G5999tk4c+bM3/qff7d33nln7Nu376rvX3rppW2ftAIAAMCdI3DAFR566KFx7NixMZ3+9Q2uH374YTzxxBMLmgoAAIAbsQcHXOHAgQNXxY0xxvjkk08WMA0AAADbIXDAZXbu3Dmefvrpa15777337vA0AAAAbJfAAZd57bXXxu7du6/6/uuvvx6rq6sLmAgAAIDtcIoKjDH27t07Dh8+PJ555plrXn/33Xfv8EQAAADcDIGDu9L+/fvH888/P8b436kve/bsGbPZ7Jr3/vjjj+PNN9+8k+MBAABwkwQO7kr333//ePjhh7d179GjR8dvv/12mycCAADgVtiDA27go48+Gm+88caixwAAAGALAgdcx+rq6nj11VcXPQYAAADbIHDAFX7//ffx1ltvjYMHD44LFy4sehwAAAC2wR4c3JU+/fTTsbKyMpaXl8e999475vP5+OWXX8aZM2fGsWPHxldffbXoEQEAALgJk+Xl5fmihwAAAAC4FV5RAQAAAPIEDgAAACBP4AAAAADyBA4AAAAgT+AAAAAA8gQOAAAAIE/gAAAAAPIEDgAAACBP4AAAAADyBA4AAAAgT+AAAAAA8gQOAAAAIE/gAAAAAPIEDgAAACBP4AAAAADyBA4AAAAgT+AAAAAA8gQOAAAAIE/gAAAAAPIEDgAAACBP4AAAAADyBA4AAAAgT+AAAAAA8gQOAAAAIE/gAAAAAPIEDgAAACBP4AAAAADyBA4AAAAgT+AAAAAA8gQOAAAAIE/gAAAAAPIEDgAAACBP4AAAAADyBA4AAAAgT+AAAAAA8gQOAAAAIE/gAAAAAPIEDgAAACBP4AAAAADyBA4AAAAgT+AAAAAA8gQOAAAAIG/y5ZdfztfW1sba2tpYX18f6+vrY21tbczn87G+vj7m8/mYz+eLnhMAAAC4S00mkzGZTMZ0Oh2TyWTMZrMxnU7HdDods9lszGazsTSbzTZvXltb23xofX19TKdTcQMAAABYuMsjx+VxY+NzaTab/SVubKzi2Fi5IXAAAAAAi7YROK4XOZaWlpauihsbgQMAAADgn+TKwLG5gmM6nW7esHGTlRsAAADAP9H1VnJsvqIibgAAAAAF14ocSxs7kE4mE2EDAAAAyLj8ZJWl2Ww25vO5E1MAAACAlMtXcmwGDnEDAAAAqNkMHBubjAIAAABULc1ms0XPAAAAAHBLrOAAAAAA8gQOAAAAIG9pMpksegYAAACAWyJwAAAAAHkCBwAAAJBnAw4AAAAgT+AAAAAA8gQOAAAAIE/gAAAAAPIEDgAAACBP4AAAAADyBA4AAAAgT+AAAAAA8gQOAAAAIE/gAAAAAPIEDgAAACBP4AAAAADyBA4AAAAgT+AAAAAA8gQOAAAAIE/gAAAAAPIEDgAAACBP4AAAAADyBA4AAAAgT+AAAAAA8gQOAAAAIE/gAAAAAPIEDgAAACBP4AAAAADyBA4AAAAgT+AAAAAA8gQOAAAAIE/gAAAAAPIEDgAAACBP4AAAAADyBA4AAAAgT+AAAAAA8gQOAAAAIE/gAAAAAPIEDgAAACBP4AAAAADyBA4AAAAgT+AAAAAA8gQOAAAAIE/gAAAAAPIEDgAAACBP4AAAAADyBA4AAAAgT+AAAAAA8gQOAAAAIE/gAAAAAPIEDgAAACBP4AAAAADyBA4AAAAgT+AAAAAA8gQOAAAAIE/gAAAAAPIEDgAAACBP4AAAAADyBA4AAAAgT+AAAAAA8gQOAAAAIE/gAAAAAPIEDgAAACBP4AAAAADyBA4AAAAgT+AAAAAA8gQOAAAAIE/gAAAAAPIEDgAAACBP4AAAAADyBA4AAAAgT+AAAAAA8gQOAAAAIE/gAAAAAPIEDgAAACBP4AAAAADyBA4AAAAgT+AAAAAA8gQOAAAAIE/gAAAAAPIEDgAAACBP4AAAAADyBA4AAAAgT+AAAAAA8gQOAAAAIE/gAAAAAPIEDgAAACBP4AAAAADyBA4AAAAgT+AAAAAA8gQOAAAAIE/gAAAAAPIEDgAAACBP4AAAAADyBA4AAAAgT+AAAAAA8gQOAAAAIE/gAAAAAPIEDgAAACBP4AAAAADyBA4AAAAgT+AAAAAA8gQOAAAAIE/gAAAAAPIEDgAAACBP4AAAAADyBA4AAAAgT+AAAAAA8gQOAAAAIE/gAAAAAPIEDgAAACBP4AAAAADyBA4AAAAgT+AAAAAA8gQOAAAAIE/gAAAAAPIEDgAAACBP4AAAAADyBA4AAAAgT+AAAAAA8gQOAAAAIE/gAAAAAPIEDgAAACBP4AAAAADyBA4AAAAgT+AAAAAA8gQOAAAAIE/gAAAAAPIEDgAAACBP4AAAAADyBA4AAAAgT+AAAAAA8gQOAAAAIE/gAAAAAPIEDgAAACBP4AAAAADyBA4AAAAgT+AAAAAA8gQOAAAAIE/gAAAAAPIEDgAAACBP4AAAAADyBA4AAAAgT+AAAAAA8gQOAAAAIE/gAAAAAPIEDgAAACBP4AAAAADyBA4AAAAgT+AAAAAA8gQOAAAAIE/gAAAAAPIEDgAAACBP4AAAAADyBA4AAAAgT+AAAAAA8gQOAAAAIE/gAAAAAPIEDgAAACBP4AAAAADyBA4AAAAgT+AAAAAA8gQOAAAAIE/gAAAAAPIEDgAAACBP4AAAAADyBA4AAAAgT+AAAAAA8gQOAAAAIE/gAAAAAPIEDgAAACBP4AAAAADyBA4AAAAgT+AAAAAA8gQOAAAAIE/gAAAAAPIEDgAAACBP4AAAAADyBA4AAAAgT+AAAAAA8gQOAAAAIE/gAAAAAPIEDgAAACBP4AAAAADyBA4AAAAgT+AAAAAA8gQOAAAAIE/gAAAAAPIEDgAAACBP4AAAAADyBA4AAAAgT+AAAAAA8gQOAAAAIE/gAAAAAPIEDgAAACBP4AAAAADyBA4AAAAgT+AAAAAA8gQOAAAAIE/gAAAAAPIEDgAAACBP4AAAAADyBA4AAAAgT+AAAAAA8gQOAAAAIE/gAAAAAPIEDgAAACBP4AAAAADyBA4AAAAgT+AAAAAA8gQOAAAAIE/gAAAAAPIEDgAAACBP4AAAAADyBA4AAAAgT+AAAAAA8gQOAAAAIE/gAAAAAPIEDgAAACBP4AAAAADyBA4AAAAgT+AAAAAA8gQOAAAAIE/gAAAAAPIEDgAAACBP4AAAAADyBA4AAAAgT+AAAAAA8gQOAAAAIE/gAAAAAPIEDgAAACBP4AAAAADyBA4AAAAgT+AAAAAA8gQOAAAAIE/gAAAAAPIEDgAAACBP4AAAAADyBA4AAAAgT+AAAAAA8gQOAAAAIE/gAAAAAPIEDgAAACBP4AAAAADyBA4AAAAgT+AAAAAA8gQOAAAAIE/gAAAAAPIEDgAAACBP4AAAAADyBA4AAAAgT+AAAAAA8gQOAAAAIE/gAAAAAPIEDgAAACBP4AAAAADyBA4AAAAgT+AAAAAA8gQOAAAAIE/gAAAAAPIEDgAAACBP4AAAAADyBA4AAAAgT+AAAAAA8gQOAAAAIE/gAAAAAPIEDgAAACBP4AAAAADyBA4AAAAgT+AAAAAA8gQOAAAAIE/gAAAAAPIEDgAAACBP4AAAAADyBA4AAAAgT+AAAAAA8gQOAAAAIE/gAAAAAPIEDgAAACBP4AAAAADyBA4AAAAgT+AAAAAA8gQOAAAAIE/gAAAAAPIEDgAAACBP4AAAAADyBA4AAAAgT+AAAAAA8gQOAAAAIE/gAAAAAPIEDgAAACBP4AAAAADyBA4AAAAgT+AAAAAA8gQOAAAAIE/gAAAAAPIEDgAAACBP4AAAAADyBA4AAAAgT+AAAAAA8gQOAAAAIE/gAAAAAPIEDgAAACBP4AAAAADyBA4AAAAgT+AAAAAA8gQOAAAAIE/gAAAAAPIEDgAAACBP4AAAAADyBA4AAAAgT+AAAAAA8gQOAAAAIE/gAAAAAPIEDgAAACBP4AAAAADyBA4AAAAgT+AAAAAA8gQOAAAAIE/gAAAAAPIEDgAAACBP4AAAAADyBA4AAAAgT+AAAAAA8gQOAAAAIE/gAAAAAPIEDgAAACBP4AAAAADyBA4AAAAgT+AAAAAA8gQOAAAAIE/gAAAAAPIEDgAAACBP4AAAAADyBA4AAAAgT+AAAAAA8gQOAAAAIE/gAAAAAPIEDgAAACBP4AAAAADyBA4AAAAgT+AAAAAA8gQOAAAAIE/gAAAAAPIEDgAAACBP4AAAAADyBA4AAAAgT+AAAAAA8gQOAAAAIE/gAAAAAPIEDgAAACBP4AAAAADyBA4AAAAgT+AAAAAA8gQOAAAAIE/gAAAAAPIEDgAAACBP4AAAAADyBA4AAAAgT+AAAAAA8gQOAAAAIE/gAAAAAPIEDgAAACBP4AAAAADyBA4AAAAgT+AAAAAA8gQOAAAAIE/gAAAAAPIEDgAAACBP4AAAAADyBA4AAAAgT+AAAAAA8gQOAAAAIE/gAAAAAPIEDgAAACBP4AAAAADyBA4AAAAgT+AAAAAA8gQOAAAAIE/gAAAAAPIEDgAAACBP4AAAAADyBA4AAAAgT+AAAAAA8gQOAAAAIE/gAAAAAPIEDgAAACBP4AAAAADyBA4AAAAgT+AAAAAA8gQOAAAAIE/gAAAAAPIEDgAAACBP4AAAAADyBA4AAAAgT+AAAAAA8gQOAAAAIE/gAAAAAPIEDgAAACBP4AAAAADyBA4AAAAgT+AAAAAA8gQOAAAAIE/gAAAAAPIEDgAAACBP4AAAAADyBA4AAAAgT+AAAAAA8gQOAAAAIE/gAAAAAPIEDgAAACBP4AAAAADyBA4AAAAgT+AAAAAA8gQOAAAAIE/gAAAAAPIEDgAAACBP4AAAAADyBA4AAAAgT+AAAAAA8gQOAAAAIE/gAAAAAPIEDgAAACBP4AAAAADyBA4AAAAgT+AAAAAA8gQOAAAAIE/gAAAAAPIEDgAAACBP4AAAAADyBA4AAAAgT+AAAAAA8gQOAAAAIE/gAAAAAPIEDgAAACBP4AAAAADyBA4AAAAgT+AAAAAA8gQOAAAAIE/gAAAAAPIEDgAAACBP4AAAAADyBA4AAAAgT+AAAAAA8gQOAAAAIE/gAAAAAPIEDgAAACBP4AAAAADyBA4AAAAgT+AAAAAA8gQOAAAAIE/gAAAAAPIEDgAAACBP4AAAAADyBA4AAAAgT+AAAAAA8gQOAAAAIE/gAAAAAPIEDgAAACBP4AAAAADyBA4AAAAgT+AAAAAA8gQOAAAAIE/gAAAAAPIEDgAAACBP4AAAAADyBA4AAAAgT+AAAAAA8gQOAAAAIE/gAAAAAPIEDgAAACBP4AAAAADyBA4AAAAgT+AAAAAA8gQOAAAAIE/gAAAAAPIEDgAAACBP4AAAAADyBA4AAAAgT+AAAAAA8gQOAAAAIE/gAAAAAPIEDgAAACBP4AAAAADyBA4AAAAgT+AAAAAA8gQOAAAAIE/gAAAAAPIEDgAAACBP4AAAAADyBA4AAAAgT+AAAAAA8gQOAAAAIE/gAAAAAPIEDgAAACBP4AAAAADyBA4AAAAgT+AAAAAA8gQOAAAAIE/gAAAAAPIEDgAAACBP4AAAAADyBA4AAAAgT+AAAAAA8gQOAAAAIE/gAAAAAPIEDgAAACBP4AAAAADyBA4AAAAgT+AAAAAA8gQOAAAAIE/gAAAAAPIEDgAAACBP4AAAAADyBA4AAAAgT+AAAAAA8gQOAAAAIE/gAAAAAPIEDgAAACBP4AAAAADyBA4AAAAgT+AAAAAA8gQOAAAAIE/gAAAAAPIEDgAAACBP4AAAAADyBA4AAAAgT+AAAAAA8gQOAAAAIE/gAAAAAPIEDgAAACBP4AAAAADyBA4AAAAgT+AAAAAA8gQOAAAAIE/gAAAAAPIEDgAAACBP4AAAAADyBA4AAAAgT+AAAAAA8gQOAAAAIE/gAAAAAPIEDgAAACBP4AAAAADyBA4AAAAgT+AAAAAA8gQOAAAAIE/gAAAAAPIEDgAAACBP4AAAAADyBA4AAAAgT+AAAAAA8gQOAAAAIE/gAAAAAPIEDgAAACBP4AAAAADyBA4AAAAgT+AAAAAA8gQOAAAAIE/gAAAAAPIEDgAAACBP4AAAAADyBA4AAAAgT+AAAAAA8gQOAAAAIE/gAAAAAPIEDgAAACBP4AAAAADyBA4AAAAgT+AAAAAA8gQOAAAAIE/gAAAAAPIEDgAAACBP4AAAAADyBA4AAAAgT+AAAAAA8gQOAAAAIE/gAAAAAPIEDgAAACBP4AAAAADyBA4AAAAgT+AAAAAA8gQOAAAAIE/gAAAAAPIEDgAAACBP4AAAAADyBA4AAAAgT+AAAAAA8gQOAAAAIE/gAAAAAPIEDgAAACBP4AAAAADyBA4AAAAgT+AAAAAA8gQOAAAAIE/gAAAAAPIEDgAAACBP4AAAAADyBA4AAAAgT+AAAAAA8gQOAAAAIE/gAAAAAPIEDgAAACBP4AAAAADyBA4AAAAgT+AAAAAA8gQOAAAAIE/gAAAAAPIEDgAAACBP4AAAAADyBA4AAAAgT+AAAAAA8gQOAAAAIE/gAAAAAPIEDgAAACBP4AAAAADyBA4AAAAgT+AAAAAA8gQOAAAAIE/gAAAAAPIEDgAAACBP4AAAAADyBA4AAAAgT+AAAAAA8gQOAAAAIE/gAAAAAPIEDgAAACBP4AAAAADyBA4AAAAgT+AAAAAA8gQOAAAAIE/gAAAAAPIEDgAAACBP4AAAAADyBA4AAAAgT+AAAAAA8gQOAAAAIE/gAAAAAPIEDgAAACBP4AAAAADyBA4AAAAgT+AAAAAA8gQOAAAAIE/gAAAAAPIEDgAAACBP4AAAAADyBA4AAAAgT+AAAAAA8gQOAAAAIE/gAAAAAPIEDgAAACBP4AAAAADyBA4AAAAgT+AAAAAA8gQOAAAAIE/gAAAAAPIEDgAAACBP4AAAAADyBA4AAAAgT+AAAAAA8gQOAAAAIE/gAAAAAPIEDgAAACBP4AAAAADyBA4AAAAgT+AAAAAA8gQOAAAAIE/gAAAAAPIEDgAAACBP4AAAAADyBA4AAAAgT+AAAAAA8gQOAAAAIE/gAAAAAPIEDgAAACBP4AAAAADyBA4AAAAgT+AAAAAA8gQOAAAAIE/gAAAAAPIEDgAAACBP4AAAAADyBA4AAAAgT+AAAAAA8gQOAAAAIE/gAAAAAPIEDgAAACBP4AAAAADyBA4AAAAgT+AAAAAA8gQOAAAAIE/gAAAAAPIEDgAAACBP4AAAAADyBA4AAAAgT+AAAAAA8gQOAAAAIE/gAAAAAPIEDgAAACBP4AAAAADyBA4AAAAgT+AAAAAA8gQOAAAAIE/gAAAAAPIEDgAAACBP4AAAAADyBA4AAAAgT+AAAAAA8gQOAAAAIE/gAAAAAPIEDgAAACBP4AAAAADyBA4AAAAgT+AAAAAA8gQOAAAAIE/gAAAAAPIEDgAAACBP4AAAAADyBA4AAAAgT+AAAAAA8gQOAAAAIE/gAAAAAPIEDgAAACBP4AAAAADyBA4AAAAgT+AAAAAA8gQOAAAAIE/gAAAAAPIEDgAAACBP4AAAAADyBA4AAAAgT+AAAAAA8gQOAAAAIE/gAAAAAPIEDgAAACBP4AAAAADyBA4AAAAgT+AAAAAA8gQOAAAAIE/gAAAAAPIEDgAAACBP4AAAAADyBA4AAAAgT+AAAAAA8gQOAAAAIE/gAAAAAPIEDgAAACBP4AAAAADyBA4AAAAgT+AAAAAA8gQOAAAAIE/gAAAAAPIEDgAAACBP4AAAAADyBA4AAAAgT+AAAAAA8gQOAAAAIE/gAAAAAPIEDgAAACBP4AAAAADyBA4AAAAgT+AAAAAA8gQOAAAAIE/gAAAAAPIEDgAAACBP4AAAAADyBA4AAAAgT+AAAAAA8gQOAAAAIE/gAAAAAPIEDgAAACBP4AAAAADyBA4AAAAgT+AAAAAA8gQOAAAAIE/gAAAAAPIEDgAAACBP4AAAAADyBA4AAAAgT+AAAAAA8gQOAAAAIE/gAAAAAPIEDgAAACBP4AAAAADyBA4AAAAgT+AAAAAA8gQOAAAAIE/gAAAAAPIEDgAAACBP4AAAAADyBA4AAAAgT+AAAAAA8gQOAAAAIE/gAAAAAPIEDgAAACBP4AAAAADyBA4AAAAgT+AAAAAA8gQOAAAAIE/gAAAAAPIEDgAAACBP4AAAAADyBA4AAAAgT+AAAAAA8gQOAAAAIE/gAAAAAPIEDgAAACBP4AAAAADyBA4AAAAgT+AAAAAA8gQOAAAAIE/gAAAAAPIEDgAAACBP4AAAAADyBA4AAAAgT+AAAAAA8gQOAAAAIE/gAAAAAPIEDgAAACBP4AAAAADyBA4AAAAgT+AAAAAA8gQOAAAAIE/gAAAAAPIEDgAAACBP4AAAAADyBA4AAAAgT+AAAAAA8gQOAAAAIE/gAAAAAPIEDgAAACBP4AAAAADyBA4AAAAgT+AAAAAA8gQOAAAAIE/gAAAAAPIEDgAAACBP4AAAAADyBA4AAAAgT+AAAAAA8gQOAAAAIE/gAAAAAPIEDgAAACBP4AAAAADyBA4AAAAgT+AAADjsAdwAACAASURBVAAA8gQOAAAAIE/gAAAAAPIEDgAAACBP4AAAAADyBA4AAAAgT+AAAAAA8gQOAAAAIE/gAAAAAPIEDgAAACBP4AAAAADyBI7/smMHJAAAAACC/r9uR6AzBAAAAPYEBwAAALAnOAAAAIA9wQEAAADsCQ4AAABgT3AAAAAAe4IDAAAA2BMcAAAAwJ7gAAAAAPYEBwAAALAnOAAAAIA9wQEAAADsCQ4AAABgT3AAAAAAe4IDAAAA2BMcAAAAwJ7gAAAAAPYEBwAAALAnOAAAAIA9wQEAAADsCQ4AAABgT3AAAAAAe4IDAAAA2BMcAAAAwJ7gAAAAAPYEBwAAALAnOAAAAIA9wQEAAADsCQ4AAABgT3AAAAAAe4IDAAAA2BMcAAAAwJ7gAAAAAPYEBwAAALAnOAAAAIA9wQEAAADsCQ4AAABgT3AAAAAAe4IDAAAA2BMcAAAAwJ7gAAAAAPYEBwAAALAnOAAAAIA9wQEAAADsCQ4AAABgT3AAAAAAe4IDAAAA2BMcAAAAwJ7gAAAAAPYEBwAAALAnOAAAAIA9wQEAAADsCQ4AAABgT3AAAAAAe4IDAAAA2BMcAAAAwJ7gAAAAAPYEBwAAALAnOAAAAIA9wQEAAADsCQ4AAABgT3AAAAAAe4IDAAAA2BMcAAAAwJ7gAAAAAPYEBwAAALAnOAAAAIA9wQEAAADsCQ4AAABgT3AAAAAAe4IDAAAA2BMcAAAAwJ7gAAAAAPYEBwAAALAnOAAAAIA9wQEAAADsCQ4AAABgT3AAAAAAe4IDAAAA2BMcAAAAwJ7gAAAAAPYEBwAAALAnOAAAAIA9wQEAAADsCQ4AAABgT3AAAAAAe4IDAAAA2BMcAAAAwJ7gAAAAAPYEBwAAALAnOAAAAIA9wQEAAADsCQ4AAABgT3AAAAAAe4IDAAAA2BMcAAAAwJ7gAAAAAPYEBwAAALAnOAAAAIA9wQEAAADsCQ4AAABgT3AAAAAAe4IDAAAA2BMcAAAAwJ7gAAAAAPYEBwAAALAnOAAAAIA9wQEAAADsCQ4AAABgT3AAAAAAe4IDAAAA2BMcAAAAwJ7gAAAAAPYEBwAAALAnOAAAAIA9wQEAAADsCQ4AAABgT3AAAAAAe4IDAAAA2BMcAAAAwJ7gAAAAAPYEBwAAALAnOAAAAIA9wQEAAADsCQ4AAABgT3AAAAAAe4IDAAAA2BMcAAAAwJ7gAAAAAPYEBwAAALAnOAAAAIA9wQEAAADsCQ4AAABgT3AAAAAAe4IDAAAA2BMcAAAAwJ7gAAAAAPYEBwAAALAnOAAAAIA9wQEAAADsCQ4AAABgT3AAAAAAe4IDAAAA2BMcAAAAwJ7gAAAAAPYEBwAAALAnOAAAAIA9wQEAAADsCQ4AAABgT3AAAAAAe4IDAAAA2BMcAAAAwJ7gAAAAAPYEBwAAALAnOAAAAIA9wQEAAADsCQ4AAABgT3AAAAAAe4IDAAAA2BMcAAAAwJ7gAAAAAPYEBwAAALAnOAAAAIA9wQEAAADsCQ4AAABgT3AAAAAAe4IDAAAA2BMcAAAAwJ7gAAAAAPYEBwAAALAnOAAAAIA9wQEAAADsCQ4AAABgT3AAAAAAe4IDAAAA2BMcAAAAwJ7gAAAAAPYEBwAAALAnOAAAAIA9wQEAAADsCQ4AAABgT3AAAAAAe4IDAAAA2BMcAAAAwJ7gAAAAAPYEBwAAALAnOAAAAIA9wQEAAADsCQ4AAABgT3AAAAAAe4IDAAAA2BMcAAAAwJ7gAAAAAPYEBwAAALAnOAAAAIA9wQEAAADsCQ4AAABgT3AAAAAAe4IDAAAA2BMcAAAAwJ7gAAAAAPYEBwAAALAnOAAAAIA9wQEAAADsCQ4AAABgT3AAAAAAe4IDAAAA2BMcAAAAwJ7gAAAAAPYEBwAAALAnOAAAAIA9wQEAAADsCQ4AAABgT3AAAAAAe4IDAAAA2BMcAAAAwJ7gAAAAAPYEBwAAALAnOAAAAIA9wQEAAADsCQ4AAABgT3AAAAAAe4IDAAAA2BMcAAAAwJ7gAAAAAPYEBwAAALAnOAAAAIA9wQEAAADsCQ4AAABgT3AAAAAAe4IDAAAA2BMcAAAAwJ7gAAAAAPYEBwAAALAnOAAAAIA9wQEAAADsCQ4AAABgT3AAAAAAe4IDAAAA2BMcAAAAwJ7gAAAAAPYEBwAAALAnOAAAAIA9wQEAAADsCQ4AAABgT3AAAAAAe4IDAAAA2BMcAAAAwJ7gAAAAAPYEBwAAALAnOAAAAIA9wQEAAADsCQ4AAABgT3AAAAAAe4IDAAAA2BMcAAAAwJ7gAAAAAPYEBwAAALAnOAAAAIA9wQEAAADsCQ4AAABgT3AAAAAAe4IDAAAA2BMcAAAAwJ7gAAAAAPYEBwAAALAnOAAAAIA9wQEAAADsCQ4AAABgT3AAAAAAe4IDAAAA2BMcAAAAwJ7gAAAAAPYEBwAAALAnOAAAAIA9wQEAAADsCQ4AAABgT3AAAAAAe4IDAAAA2BMcAAAAwJ7gAAAAAPYEBwAAALAnOAAAAIA9wQEAAADsCQ4AAABgT3AAAAAAe4IDAAAA2BMcAAAAwJ7gAAAAAPYEBwAAALAnOAAAAIA9wQEAAADsCQ4AAABgT3AAAAAAe4IDAAAA2BMcAAAAwJ7gAAAAAPYEBwAAALAnOAAAAIA9wQEAAADsCQ4AAABgT3AAAAAAe4IDAAAA2BMcAAAAwJ7gAAAAAPYEBwAAALAnOAAAAIA9wQEAAADsCQ4AAABgT3AAAAAAe4IDAAAA2BMcAAAAwJ7gAAAAAPYEBwAAALAnOAAAAIA9wQEAAADsCQ4AAABgT3AAAAAAe4IDAAAA2BMcAAAAwJ7gAAAAAPYEBwAAALAnOAAAAIA9wQEAAADsCQ4AAABgT3AAAAAAe4IDAAAA2BMcAAAAwJ7gAAAAAPYEBwAAALAnOAAAAIA9wQEAAADsCQ4AAABgT3AAAAAAe4IDAAAA2BMcAAAAwJ7gAAAAAPYEBwAAALAnOAAAAIA9wQEAAADsCQ4AAABgT3AAAAAAe4IDAAAA2BMcAAAAwJ7gAAAAAPYEBwAAALAnOAAAAIA9wQEAAADsCQ4AAABgT3AAAAAAe4IDAAAA2BMcAAAAwJ7gAAAAAPYEBwAAALAnOAAAAIA9wQEAAADsCQ4AAABgT3AAAAAAe4IDAAAA2BMcAAAAwJ7gAAAAAPYEBwAAALAnOAAAAIA9wQEAAADsCQ4AAABgT3AAAAAAe4IDAAAA2BMcAAAAwJ7gAAAAAPYEBwAAALAnOAAAAIA9wQEAAADsCQ4AAABgT3AAAAAAe4IDAAAA2BMcAAAAwJ7gAAAAAPYEBwAAALAnOAAAAIA9wQEAAADsCQ4AAABgT3AAAAAAe4IDAAAA2BMcAAAAwJ7gAAAAAPYEBwAAALAnOAAAAIA9wQEAAADsCQ4AAABgT3AAAAAAe4IDAAAA2BMcAAAAwJ7gAAAAAPYEBwAAALAnOAAAAIA9wQEAAADsCQ4AAABgT3AAAAAAe4IDAAAA2BMcAAAAwJ7gAAAAAPYEBwAAALAnOAAAAIA9wQEAAADsCQ4AAABgT3AAAAAAe4IDAAAA2BMcAAAAwJ7gAAAAAPYEBwAAALAnOAAAAIA9wQEAAADsCQ4AAABgT3AAAAAAe4IDAAAA2BMcAAAAwJ7gAAAAAPYEBwAAALAnOAAAAIA9wQEAAADsCQ4AAABgT3AAAAAAe4IDAAAA2BMcAAAAwJ7gAAAAAPYEBwAAALAnOAAAAIA9wQEAAADsCQ4AAABgT3AAAAAAe4IDAAAA2BMcAAAAwJ7gAAAAAPYEBwAAALAnOAAAAIA9wQEAAADsCQ4AAABgT3AAAAAAe4IDAAAA2BMcAAAAwJ7gAAAAAPYEBwAAALAnOAAAAIA9wQEAAADsCQ4AAABgT3AAAAAAe4IDAAAA2BMcAAAAwJ7gAAAAAPYEBwAAALAnOAAAAIA9wQEAAADsCQ4AAABgT3AAAAAAe4IDAAAA2BMcAAAAwJ7gAAAAAPYEBwAAALAnOAAAAIA9wQEAAADsCQ4AAABgT3AAAAAAe4IDAAAA2BMcAAAAwJ7gAAAAAPYEBwAAALAnOAAAAIA9wQEAAADsCQ4AAABgT3AAAAAAe4IDAAAA2BMcAAAAwJ7gAAAAAPYEBwAAALAnOAAAAIA9wQEAAADsCQ4AAABgT3AAAAAAe4IDAAAA2BMcAAAAwJ7gAAAAAPYEBwAAALAnOAAAAIA9wQEAAADsCQ4AAABgT3AAAAAAe4IDAAAA2BMcAAAAwJ7gAAAAAPYEBwAAALAnOAAAAIA9wQEAAADsCQ4AAABgT3AAAAAAe4IDAAAA2BMcAAAAwJ7gAAAAAPYEBwAAALAnOAAAAIA9wQEAAADsCQ4AAABgT3AAAAAAe4IDAAAA2BMcAAAAwJ7gAAAAAPYEBwAAALAnOAAAAIA9wQEAAADsCQ4AAABgT3AAAAAAe4IDAAAA2BMcAAAAwJ7gAAAAAPYEBwAAALAnOAAAAIA9wQEAAADsCQ4AAABgT3AAAAAAe4IDAAAA2BMcAAAAwJ7gAAAAAPYEBwAAALAnOAAAAIA9wQEAAADsCQ4AAABgT3AAAAAAe4IDAAAA2BMcAAAAwJ7gAAAAAPYEBwAAALAnOAAAAIA9wQEAAADsCQ4AAABgT3AAAAAAe4IDAAAA2BMcAAAAwJ7gAAAAAPYEBwAAALAnOAAAAIA9wQEAAADsCQ4AAABgT3AAAAAAe4IDAAAA2BMcAAAAwJ7gAAAAAPYEBwAAALAnOAAAAIA9wQEAAADsCQ4AAABgT3AAAAAAe4IDAAAA2BMcAAAAwJ7gAAAAAPYEBwAAALAnOAAAAIA9wQEAAADsCQ4AAABgT3AAAAAAe4IDAAAA2BMcAAAAwJ7gAAAAAPYEBwAAALAnOAAAAIA9wQEAAADsCQ4AAABgT3AAAAAAe4IDAAAA2BMcAAAAwJ7gAAAAAPYEBwAAALAnOAAAAIA9wQEAAADsCQ4AAABgT3AAAAAAe4IDAAAA2BMcAAAAwJ7gAAAAAPYEBwAAALAnOAAAAIA9wQEAAADsCQ4AAABgT3AAAAAAe4IDAAAA2BMcAAAAwJ7gAAAAAPYEBwAAALAnOAAAAIA9wQEAAADsCQ4AAABgT3AAAAAAe4IDAAAA2BMcAAAAwJ7gAAAAAPYEBwAAALAnOAAAAIA9wQEAAADsCQ4AAABgT3AAAAAAe4IDAAAA2BMcAAAAwJ7gAAAAAPYEBwAAALAnOAAAAIA9wQEAAADsCQ4AAABgT3AAAAAAe4IDAAAA2BMcAAAAwJ7gAAAAAPYEBwAAALAnOAAAAIA9wQEAAADsCQ4AAABgT3AAAAAAe4IDAAAA2BMcAAAAwJ7gAAAAAPYEBwAAALAnOAAAAIA9wQEAAADsCQ4AAABgT3AAAAAAe4IDAAAA2BMcAAAAwJ7gAAAAAPYEBwAAALAnOAAAAIA9wQEAAADsCQ4AAABgT3AAAAAAe4IDAAAA2BMcAAAAwJ7gAAAAAPYEBwAAALAnOAAAAIA9wQEAAADsCQ4AAABgT3AAAAAAe4IDAAAA2BMcAAAAwJ7gAAAAAPYEBwAAALAnOAAAAIA9wQEAAADsCQ4AAABgT3AAAAAAe4IDAAAA2BMcAAAAwJ7gAAAAAPYEBwAAALAnOAAAAIA9wQEAAADsCQ4AAABgT3AAAAAAe4IDAAAA2BMcAAAAwJ7gAAAAAPYEBwAAALAnOAAAAIA9wQEAAADsCQ4AAABgT3AAAAAAe4IDAAAA2BMcAAAAwJ7gAAAAAPYEBwAAALAnOAAAAIA9wQEAAADsCQ4AAABgT3AAAAAAe4IDAAAA2BMcAAAAwJ7gAAAAAPYEBwAAALAnOAAAAIA9wQEAAADsCQ4AAABgT3AAAAAAe4IDAAAA2BMcAAAAwJ7gAAAAAPYEBwAAALAnOAAAAIA9wQEAAADsCQ4AAABgT3AAAAAAe4IDAAAA2BMcAAAAwJ7gAAAAAPYEBwAAALAnOAAAAIA9wQEAAADsCQ4AAABgT3AAAAAAe4IDAAAA2BMcAAAAwJ7gAAAAAPYEBwAAALAnOAAAAIA9wQEAAADsCQ4AAABgT3AAAAAAe4IDAAAA2BMcAAAAwJ7gAAAAAPYEBwAAALAnOAAAAIA9wQEAAADsCQ4AAABgT3AAAAAAe4IDAAAA2BMcAAAAwJ7gAAAAAPYEBwAAALAnOAAAAIA9wQEAAADsCQ4AAABgT3AAAAAAe4IDAAAA2BMcAAAAwJ7gAAAAAPYEBwAAALAnOAAAAIA9wQEAAADsCQ4AAABgT3AAAAAAe4IDAAAA2BMcAAAAwJ7gAAAAAPYEBwAAALAnOAAAAIA9wQEAAADsCQ4AAABgT3AAAAAAe4IDAAAA2BMcAAAAwJ7gAAAAAPYEBwAAALAnOAAAAIA9wQEAAADsCQ4AAABgT3AAAAAAe4IDAAAA2BMcAAAAwJ7gAAAAAPYEBwAAALAnOAAAAIA9wQEAAADsCQ4AAABgT3AAAAAAe4IDAAAA2BMcAAAAwJ7gAAAAAPYEBwAAALAnOAAAAIA9wQEAAADsCQ4AAABgT3AAAAAAe4IDAAAA2BMcAAAAwJ7gAAAAAPYEBwAAALAnOAAAAIA9wQEAAADsCQ4AAABgT3AAAAAAe4IDAAAA2BMcAAAAwJ7gAAAAAPYEBwAAALAnOAAAAIA9wQEAAADsCQ4AAABgT3AAAAAAe4IDAAAA2BMcAAAAwJ7gAAAAAPYEBwAAALAnOAAAAIA9wQEAAADsCQ4AAABgT3AAAAAAe4IDAAAA2BMcAAAAwJ7gAAAAAPYEBwAAALAnOAAAAIA9wQEAAADsCQ4AAABgT3AAAAAAe4IDAAAA2BMcAAAAwJ7gAAAAAPYEBwAAALAnOAAAAIA9wQEAAADsCQ4AAABgT3AAAAAAe4IDAAAA2BMcAAAAwJ7gAAAAAPYEBwAAALAnOAAAAIA9wQEAAADsCQ4AAABgT3AAAAAAe4IDAAAA2BMcAAAAwJ7gAAAAAPYEBwAAALAnOAAAAIA9wQEAAADsCQ4AAABgT3AAAAAAe4IDAAAA2BMcAAAAwJ7gAAAAAPYEBwAAALAnOAAAAIA9wQEAAADsCQ4AAABgT3AAAAAAe4IDAAAA2BMcAAAAwJ7gAAAAAPYEBwAAALAnOAAAAIA9wQEAAADsCQ4AAABgT3AAAAAAe4IDAAAA2BMcAAAAwJ7gAAAAAPYEBwAAALAnOAAAAIA9wQEAAADsCQ4AAABgT3AAAAAAe4IDAAAA2BMcAAAAwJ7gAAAAAPYEBwAAALAnOAAAAIA9wQEAAADsCQ4AAABgT3AAAAAAe4IDAAAA2BMcAAAAwJ7gAAAAAPYEBwAAALAnOAAAAIA9wQEAAADsCQ4AAABgT3AAAAAAe4IDAAAA2BMcAAAAwJ7gAAAAAPYEBwAAALAnOAAAAIA9wQEAAADsCQ4AAABgT3AAAAAAe4IDAAAA2BMcAAAAwJ7gAAAAAPYEBwAAALAnOAAAAIA9wQEAAADsCQ4AAABgT3AAAAAAe4IDAAAA2BMcAAAAwJ7gAAAAAPYEBwAAALAnOAAAAIA9wQEAAADsCQ4AAABgT3AAAAAAe4IDAAAA2BMcAAAAwJ7gAAAAAPYEBwAAALAnOAAAAIA9wQEAAADsCQ4AAABgT3AAAAAAe4IDAAAA2BMcAAAAwJ7gAAAAAPYEBwAAALAnOAAAAIA9wQEAAADsCQ4AAABgT3AAAAAAe4IDAAAA2BMcAAAAwJ7gAAAAAPYEBwAAALAnOAAAAIA9wQEAAADsCQ4AAABgT3AAAAAAe4IDAAAA2BMcAAAAwJ7gAAAAAPYEBwAAALAnOAAAAIA9wQEAAADsCQ4AAABgT3AAAAAAe4IDAAAA2BMcAAAAwJ7gAAAAAPYEBwAAALAnOAAAAIA9wQEAAADsCQ4AAABgT3AAAAAAe4IDAAAA2BMcAAAAwJ7gAAAAAPYEBwAAALAnOAAAAIA9wQEAAADsCQ4AAABgT3AAAAAAe4IDAAAA2BMcAAAAwJ7gAAAAAPYEBwAAALAnOAAAAIA9wQEAAADsCQ4AAABgT3AAAAAAe4IDAAAA2BMcAAAAwJ7gAAAAAPYEBwAAALAnOAAAAIA9wQEAAADsCQ4AAABgT3AAAAAAe4IDAAAA2BMcAAAAwJ7gAAAAAPYEBwAAALAnOAAAAIA9wQEAAADsCQ4AAABgT3AAAAAAe4IDAAAA2BMcAAAAwJ7gAAAAAPYEBwAAALAnOAAAAIA9wQEAAADsCQ4AAABgT3AAAAAAe4IDAAAA2BMcAAAAwJ7gAAAAAPYEBwAAALAnOAAAAIA9wQEAAFB79xdadf3Hcfw991tJpk4qowvxtCzHSpwX0WwXDkxyCqb0BxGjCyuEopRi4I0hNkIw3E2U+OfGAkPNSYlKBROsViRpammSzm7KCNwcycjF+V38+MVPstKf7nzOZ+fxgM+V7nxf28WYT7/nOyB7AgcAAACQPYEDAAAAyJ7AAQAAAGRP4AAAAACyJ3AAAAAA2RM4AAAAgOwJHAAAAED2BA4AAAAgewIHAAAAkD2BAwAAAMiewAEAAABkT+AAAAAAsidwAAAAANkTOAAAAIDsCRwAAABA9gQOAAAAIHsCBwAAAJA9gQMAAADInsABAAAAZE/gAAAAALIncAAAAADZEzgAAACA7AkcAAAAQPYEDgAAACB7AgcAAACQPYEDAAAAyJ7AAQAAAGRP4AAAAACyJ3AAAAAA2RM4AAAAgOwJHAAAAED2BA4AAAAgewIHAAAAkD2BAwAAAMiewAEAAABkT+AAAAAAslcVEcXUIwAAAACuhTs4AAAAgOwJHAAAAED2BA4AAAAgewIHAAAAkD2BAwAAAMiewAEAAABkT+AAAAAAsidwAAAAANkTOAAAAIDsCRwAAABA9gQOAAAAIHsCBwAAAJA9gQMAAADInsABAAAAZE/gAAAAALIncAAAAADZEzgAAACA7AkcAAAAQPYEDgAAACB7AgcAAACQPYEDAAAAyJ7AAQAAAGRP4AAAAACyJ3AAAAAA2RM4AAAAgOwJHAAAAED2BA4AAAAgewIHAAAAkD2BAwAAAMiewAEAAABkT+AAAAAAsidwAAAAANkTOAAAAIDsCRwAAABA9gQOAAAAIHsCBwAAAJA9gQMAAADInsABAAAAZE/gAAAAALIncAAAAADZEzgAAACA7AkcAAAAQPYEDgAAACB7AgdUoJqampgzZ048+eSTMWrUqNRzAAAArllVRBRTjwBKZ9GiRbF27dq44447IiLi7NmzMWvWrDhy5EjiZQAAAP8/d3BAhZg6dWp0d3fHO++880fciIi4/fbbY8OGDQmXAQBcvUKhEDt37oxisVg2Z+fOnVEoFFJ/aaBiuYMDhrlbbrkl2tvb49lnn42qqqrL/p2LFy/GDTfcUOJlwHB00003xbx58+LRRx+Nurq6GDduXIwbNy5qa2ujt7c3zp07F+fOnYtTp07F9u3b4/33348LFy6kng1kplAoxFdffRW1tbWpp/xJb29vTJs2LXp6elJPgYpUdBxn+J3q6uri888/X+zt7S1eidR7HcfJ+zQ1NRW3bt1avHDhwhV9z/mvCxcuFLds2VJsampK/jk4jpPP6ezsvKrvNaXW2dmZ/GvkOJV43MEBw1Bzc3Ns3Lgx6uvrr/hj/uruDoC/M23atHj11Vdjzpw51/xau3fvjra2tvjmm2+uwzJgOCsWy/+fMH62gtLzDA4YRiZMmBDvvvtuHDhw4KriBsDVamhoiB07dsTBgwevS9yIiJg7d24cOXIktmzZEpMmTbourwmQSmNjY+oJUHH+lXoAcO1GjhwZbW1tsWLFihg5cmTqOcAwN3r06NiwYUM8+OCD1/21R4wYEYsXL47bbrstnnjiiTh//vx1vwZAKZTj80FguHMHB2RuwYIFcfz48Vi1apW4AQy5iRMnxhdffDEkceN/Pfzww/HZZ5/FnXfeOaTXAQCGD4EDMlVfXx9dXV3x3nvvxcSJE1PPASrA6NGj48MPPyzZW+AaGhpiz549MWbMmJJcDwDIm8ABmRk7dmysW7cujh49GjNmzEg9B6gQVVVVsWPHjrj77rtLet3JkyfH1q1bPawPAPhHAgdkorq6OpYuXRqnT5+OZcuWRXV1depJQAVZt25dzJo1K8m1W1tb47XXXktybQAgHwIHZGDGjBlx+PDhePPNN2PcuHGp5wAVprm5OV588cWkG9ra2ty1BgD8LYEDythdd90VO3fujK6urrj33ntTzwEqVHt7e+oJUVVVFatWrUo9AwAoYwIHlKExY8bEmjVr4ttvv4358+enngNUsJaWlrK5c2LGjBnR0tKSegYAUKYEDigjI0aMiKeffjq+//77aGtri5qamtSTgAq3dOnS1BMuUW57AIDy8a/UA4D/aG5ujjfeeCOmTp2aegpARETU1NREa2tr6hmXmD17dtTU1MTFixdTTwEAyow7OCCxQqEQ27ZtiwMHDogbQFmZOXNmjBkzJvWMS4wdOzZmzpyZegYAUIYEDkjk5ptvjvb29jh+/Hg89thjqecA/Em5PgOoXHcBAGl5iwqUWFVVVTz11FOxZs2aGD9+fOo5AH+psbEx9YTLKtddAEBaAgeUUHV1dbz99tuxcOHC1FMA/lFtbW3qCZdVrrsAgLS8RQVKaO7cueIGkI1yDQnlugsASEvggBKqq6tLPQHgipVrSCjXXQBAWgIHlNCBAwdSTwC4Yr29vaknXFa57gIA0hI4oIS+/PLLWLp0aQwODqaeAvCPfvrpp9QTLqtcdwEAaQkcUGLr16+PhoaG2L9/f+opAH+rXENCT09P6gkAQBkSOCCBkydPRktLSyxYsCDOnDmTeg7AZR06dCj1hMs6fvx46gkAQBkSOCChzs7OqK+vj5UrV8bAwEDqOQCX2Lt3b+oJl9XZ2Zl6AgBQhgQOSGxgsWmeQgAABLtJREFUYCBWr14dkydPju3bt6eeA/CHTz/9NPr6+lLPuERfX190d3enngEAlCGBA8rEDz/8EI8//ni0tLS4/RooC7/99lt0dXWlnnGJcr2rBABIT+CAMrN///6YMmVKLF++PPr7+1PPASpcR0dH6gmXeOutt1JPAADKlMABZWhwcDA6Ojpi0qRJsXnz5igWi6knARWqq6sr9u3bl3pGRETs27ev7O4oAQDKh8ABZeznn3+OJUuWxP333x+HDx9OPQeoUC+//HLqCfH777/HSy+9lHoGAFDGBA7IwMGDB2PatGmxZMmS+OWXX1LPASrM0aNHY82aNUk3rF27No4dO5Z0AwBQ3gQOyESxWIzNmzdHXV1ddHR0xODgYOpJQAVZsWJF7N69O8m19+zZEytWrEhybQAgHwIHZKa/vz+WL18eDQ0NsX///tRzgApRLBZj0aJFJf8tTydOnIiFCxd6FhEA8I8EDsjUyZMno6WlJRYsWBBnzpxJPQeoAOfPn4/58+dHX19fSa7X19cX8+bNi/Pnz5fkegBA3gQOyFxnZ2fU19fHypUrY2BgIPUcYJg7ceJETJgwIT766KMhvc4HH3wQEyZMiO+++25IrwMADB8CBwwDAwMDsXr16rjnnnti27ZtqecAw1x/f3/Mnj17yB48unbt2pg3b1709/cPyesDlEJvb2/qCVBxqiLCm1phmGlubo6NGzdGfX39FX9MVVXVEC4ChqumpqZ45ZVXYvbs2df8Wnv37o1Vq1ZFd3f3dVgGDGc5PJfHz1ZQeu7ggGHok08+ifvuuy9eeOGFkr1XHqhM3d3d0draGtOnT49NmzbF2bNnr+rjz549G5s2bYrp06dHa2uruAFckV27dqWe8LfKfR8MV+7ggGHu1ltvjfb29njmmWf+8n8SBgcHo6ampsTLgOFqypQp8dBDD0VDQ0PU1dVFXV1dFAqF6OnpiVOnTsXp06fj2LFj8fHHH8fXX3+dei6QoUKhEIcOHYqxY8emnvInfX190djYGD09PamnQMUROKBCTJ06NdavXx8PPPDAn/7s888/j6ampgSrAAD+P4VCITo6OuKRRx5JPeUPu3btimXLlokbkIjAARVm8eLF8frrr8f48eMjIuLXX3+N+fPnD/lvRAAAGCqNjY1RW1ub7Pq9vb1x6NChZNcH/kPggAo0atSoeO655+LGG2+MjRs3xo8//ph6EgAAwDUROAAAAIDs+S0qAAAAQPYEDgAAACB7AgcAAACQPYEDAAAAyJ7AAQAAAGRP4AAAAACyJ3AAAAAA2RM4AAAAgOwJHAAAAED2BA4AAAAgewIHAAAAkD2BAwAAAMiewAEAAABkT+AAAAAAsidwAAAAANkTOAAAAIDsCRwAAABA9gQOAAAAIHsCBwAAAJA9gQMAAADInsABAAAAZE/gAAAAALIncAAAAADZEzgAAACA7AkcAAAAQPYEDgAAACB7AgcAAACQPYEDAAAAyJ7AAQAAAGRP4AAAAACyJ3AAAAAA2RM4AAAAgOwJHAAAAED2BA4AAAAgewIHAAAAkD2BAwAAAMiewAEAAABkT+AAAAAAsidwAAAAANkTOAAAAIDsCRwAAABA9gQOAAAAIHv/BupOrmU4AKaxAAAAAElFTkSuQmCC;" vertex="1" parent="1">
                    <mxGeometry x="503.5" y="560" width="126.5" height="260" as="geometry"/>
                </mxCell>
            </root>
        </mxGraphModel>
    </diagram>
</mxfile>